<svg id="Capa_1" enable-background="new 0 0 512 512" height="512" viewBox="0 0 512 512" width="512" xmlns="http://www.w3.org/2000/svg"><g><g><path d="m100.944 405.326h14.649c3.173 0 5.754 2.582 5.754 5.754s-2.581 5.754-5.754 5.754h-25.81c-4.143 0-7.5 3.358-7.5 7.5s3.357 7.5 7.5 7.5h10.985v6.103c0 4.142 3.357 7.5 7.5 7.5s7.5-3.358 7.5-7.5v-6.112c11.362-.095 20.579-9.361 20.579-20.746 0-11.444-9.311-20.754-20.754-20.754h-14.649c-3.173 0-5.754-2.581-5.754-5.754s2.581-5.754 5.754-5.754h25.812c4.143 0 7.5-3.358 7.5-7.5s-3.357-7.5-7.5-7.5h-10.987v-6.103c0-4.142-3.357-7.5-7.5-7.5s-7.5 3.358-7.5 7.5v6.112c-11.362.096-20.578 9.361-20.578 20.745-.001 11.445 9.31 20.755 20.753 20.755z"/><path d="m484.238 188.716c-15.308 0-27.761 12.454-27.761 27.761 0 5.767 1.769 11.129 4.791 15.572l-22.439 22.439c-4.444-3.022-9.805-4.792-15.572-4.792-7.906 0-15.046 3.328-20.107 8.649l-42.731-30.737c1.499-3.41 2.337-7.174 2.337-11.132 0-15.308-12.453-27.761-27.761-27.761-14.91 0-27.108 11.817-27.732 26.576-15.95-15.031-37.427-24.257-61.021-24.257-3.039 0-6.043.154-9.004.453l-15.304-11.26c4.003-3.909 6.5-9.354 6.5-15.378 0-5.352-1.977-10.242-5.223-14.01 3.246-3.768 5.223-8.658 5.223-14.01 0-10.165-7.096-18.685-16.588-20.919l26.324-50.027c1.931-3.668 1.805-7.978-.338-11.527-2.143-3.55-5.896-5.669-10.043-5.669h-22.609c-.359-.671-.773-1.318-1.266-1.919-2.237-2.733-5.546-4.301-9.078-4.301h-39.216c-3.533 0-6.843 1.568-9.08 4.303-.492.601-.906 1.247-1.264 1.917h-22.609c-4.146 0-7.9 2.119-10.043 5.667s-2.27 7.858-.34 11.527l26.325 50.029c-9.492 2.234-16.588 10.755-16.588 20.919 0 5.352 1.977 10.242 5.223 14.01-3.246 3.768-5.223 8.658-5.223 14.01 0 6.024 2.496 11.469 6.499 15.377l-52.763 38.819h-59.923c-8.73.002-15.834 7.105-15.834 15.836v12.977c0 3.06.887 5.91 2.396 8.334-1.509 2.424-2.396 5.274-2.396 8.334v12.977c0 3.06.887 5.91 2.396 8.334-1.509 2.424-2.396 5.274-2.396 8.334v12.977c0 3.06.887 5.91 2.396 8.334-1.509 2.424-2.396 5.274-2.396 8.334v12.977c0 3.06.887 5.91 2.396 8.334-1.509 2.424-2.396 5.274-2.396 8.334v12.977c0 3.06.887 5.91 2.396 8.334-1.509 2.424-2.396 5.274-2.396 8.334v12.977c0 3.06.887 5.91 2.396 8.334-1.509 2.424-2.396 5.274-2.396 8.334v12.977c0 8.731 7.104 15.834 15.834 15.834h35.668c13.124 16.995 33.682 27.971 56.766 27.971s43.643-10.976 56.767-27.971h34.965c4.143 0 7.5-3.358 7.5-7.5s-3.357-7.5-7.5-7.5h-26.054c3.867-8.804 6.029-18.52 6.029-28.735 0-35.54-25.996-65.109-59.968-70.729v-3.281c0-3.06-.887-5.91-2.396-8.334 1.509-2.424 2.396-5.274 2.396-8.334v-12.977c0-3.06-.887-5.91-2.396-8.334 1.509-2.424 2.396-5.274 2.396-8.334v-12.977c0-3.06-.887-5.91-2.396-8.334 1.509-2.424 2.396-5.274 2.396-8.334v-12.977c0-8.731-7.104-15.834-15.834-15.834h-3.105l44.427-32.687h59.463l12.733 9.368c-35.142 11.926-60.499 45.235-60.499 84.356 0 49.102 39.947 89.05 89.05 89.05 17.065 0 33.021-4.829 46.582-13.186l22.429 22.429c-1.422 10.17-5.633 19.854-12.373 27.966-10.674 12.849-26.377 20.218-43.081 20.218h-24.799c-4.143 0-7.5 3.358-7.5 7.5s3.357 7.5 7.5 7.5h24.8c21.178 0 41.086-9.343 54.619-25.632 4.488-5.401 8.064-11.363 10.734-17.665l49.121 49.12c5.308 5.308 12.364 8.231 19.87 8.231 7.507 0 14.563-2.923 19.871-8.231 10.956-10.956 10.956-28.783-.001-39.74l-10.955-10.955c-2.928-2.93-7.677-2.929-10.606 0s-2.929 7.678.001 10.606l10.954 10.955c5.108 5.108 5.108 13.419 0 18.527-2.474 2.475-5.764 3.837-9.264 3.837-3.499 0-6.789-1.363-9.264-3.837l-49.604-49.603 18.528-18.527 13.9 13.899c2.928 2.93 7.677 2.929 10.606 0s2.929-7.678-.001-10.606l-15.468-15.467c-2.414-2.415-5.624-3.745-9.038-3.745-1.646 0-3.242.316-4.727.907l-26.97-26.97c8.357-13.561 13.186-29.517 13.186-46.581 0-13.176-2.879-25.69-8.037-36.952 2.459.715 5.054 1.106 7.74 1.106 5.904 0 11.379-1.858 15.884-5.013l45.21 32.52c-.387 1.845-.594 3.755-.594 5.713 0 15.308 12.454 27.762 27.762 27.762s27.761-12.454 27.761-27.762c0-4.085-.894-7.963-2.485-11.459l24.246-24.246c3.496 1.591 7.374 2.486 11.459 2.486 15.308 0 27.762-12.454 27.762-27.761s-12.454-27.763-27.762-27.763zm-469.238 105.455c0-.46.374-.834.834-.834h88.34c.46 0 .834.374.834.834v12.977c0 .46-.374.834-.834.834h-88.34c-.46 0-.834-.374-.834-.834zm0 29.645c0-.46.374-.834.834-.834h88.34c.46 0 .834.374.834.834v2.387c-13.09.589-25.269 4.712-35.625 11.424h-53.549c-.46 0-.834-.374-.834-.834zm0 59.29c0-.46.374-.834.834-.834h22.448c-1.05 4.726-1.633 9.623-1.696 14.645h-20.752c-.46 0-.834-.374-.834-.834zm.834 43.456c-.46 0-.834-.374-.834-.834v-12.977c0-.46.374-.834.834-.834h22.126c1.02 5.098 2.59 9.997 4.631 14.645zm27.581-59.29h-27.581c-.46 0-.834-.374-.834-.834v-12.977c0-.46.374-.834.834-.834h36.82c-3.639 4.469-6.749 9.382-9.239 14.645zm121.561 30.555c0 31.268-25.438 56.707-56.707 56.707-31.268 0-56.706-25.438-56.706-56.707s25.438-56.707 56.706-56.707 56.707 25.439 56.707 56.707zm-59.968-162.946v12.977c0 .46-.374.834-.834.834h-18.174c-4.143 0-7.5 3.358-7.5 7.5s3.357 7.5 7.5 7.5h18.174c.46 0 .834.374.834.834v12.977c0 .46-.374.834-.834.834h-88.34c-.46 0-.834-.374-.834-.834v-12.977c0-.46.374-.834.834-.834h35.166c4.143 0 7.5-3.358 7.5-7.5s-3.357-7.5-7.5-7.5h-35.166c-.46 0-.834-.374-.834-.834v-12.977c0-.46.374-.834.834-.834h88.34c.46 0 .834.374.834.834zm99.88-171.194h17.487l-27.169 51.633h-.735zm-14.046-6.22-11.672 57.853h-7.884l-11.672-57.853zm-62.762 6.22h17.487l10.417 51.633h-.735zm15.451 66.633h63.394c3.59 0 6.51 2.92 6.51 6.51s-2.92 6.51-6.51 6.51h-63.394c-3.59 0-6.51-2.92-6.51-6.51s2.92-6.51 6.51-6.51zm0 28.02h63.394c3.59 0 6.51 2.92 6.51 6.51s-2.92 6.51-6.51 6.51h-63.394c-3.59 0-6.51-2.92-6.51-6.51s2.92-6.51 6.51-6.51zm28.662 121.744c0-40.831 33.219-74.05 74.05-74.05 21.402 0 40.701 9.137 54.233 23.702l-6.594 5.087c-11.989-12.613-28.905-20.5-47.639-20.5-36.261 0-65.761 29.5-65.761 65.761s29.5 65.761 65.761 65.761 65.761-29.5 65.761-65.761c0-12.142-3.321-23.518-9.083-33.29l6.619-5.106c6.821 11.203 10.753 24.348 10.753 38.396 0 40.831-33.219 74.05-74.05 74.05s-74.05-33.218-74.05-74.05zm86.812.292c0 7.037-5.725 12.761-12.762 12.761-7.036 0-12.761-5.725-12.761-12.761s5.725-12.761 12.761-12.761c7.037 0 12.762 5.724 12.762 12.761zm4.243-21.921c-4.702-3.656-10.601-5.841-17.005-5.841-15.308 0-27.761 12.454-27.761 27.761s12.453 27.761 27.761 27.761 27.762-12.454 27.762-27.761c0-3.476-.648-6.801-1.82-9.87l18.751-14.465c3.868 7.161 6.068 15.35 6.068 24.044 0 27.99-22.771 50.761-50.761 50.761s-50.761-22.771-50.761-50.761 22.771-50.761 50.761-50.761c13.905 0 26.519 5.624 35.696 14.712zm74.485 105.05-8.069 8.069-24.649-24.65c2.858-2.516 5.553-5.211 8.069-8.069zm-2.737-134.267c-7.037 0-12.762-5.725-12.762-12.761s5.725-12.761 12.762-12.761c7.036 0 12.761 5.725 12.761 12.761s-5.725 12.761-12.761 12.761zm88.262 60.982c-7.037 0-12.762-5.725-12.762-12.762s5.725-12.761 12.762-12.761c7.036 0 12.761 5.725 12.761 12.761s-5.725 12.762-12.761 12.762zm60.98-60.982c-7.036 0-12.761-5.725-12.761-12.761s5.725-12.761 12.761-12.761c7.037 0 12.762 5.725 12.762 12.761s-5.725 12.761-12.762 12.761z"/></g></g></svg>