<svg id="Capa_1" enable-background="new 0 0 512 512" height="512" viewBox="0 0 512 512" width="512" xmlns="http://www.w3.org/2000/svg"><g><g><path d="m504.5 339.5c4.142 0 7.5-3.358 7.5-7.5v-274.412c0-9.652-7.853-17.505-17.505-17.505h-93.495c-4.142 0-7.5 3.358-7.5 7.5s3.358 7.5 7.5 7.5h93.495c1.381 0 2.505 1.124 2.505 2.505v36.604h-449.93v-36.604c0-1.381 1.124-2.505 2.505-2.505h316.425c4.142 0 7.5-3.358 7.5-7.5s-3.358-7.5-7.5-7.5h-316.425c-9.652 0-17.505 7.853-17.505 17.505v149.476h-19.56c-6.898 0-12.51 5.612-12.51 12.51v36.072c0 6.898 5.612 12.51 12.51 12.51h19.56v181.261c0 12.407 10.093 22.5 22.5 22.5h434.93c12.407 0 22.5-10.093 22.5-22.5v-82.417c0-4.142-3.358-7.5-7.5-7.5s-7.5 3.358-7.5 7.5v82.417c0 4.136-3.364 7.5-7.5 7.5h-261.368l-24.011-125.751c3.32-4.843 5.268-10.697 5.268-17v-3.926h9.534c12.423 0 22.53-10.107 22.53-22.53v-8.74h35.165c.643 6.299 5.979 11.229 12.445 11.229h71.142c6.898 0 12.51-5.612 12.51-12.51v-80.159c0-6.898-5.612-12.51-12.51-12.51h-71.142c-6.466 0-11.802 4.93-12.445 11.229h-73.618c-4.142 0-7.5 3.358-7.5 7.5s3.358 7.5 7.5 7.5h73.553v52.722h-155.826c-1.39 0-2.52-1.13-2.52-2.52v-47.681c0-1.39 1.13-2.521 2.52-2.521h47.273c4.142 0 7.5-3.358 7.5-7.5s-3.358-7.5-7.5-7.5h-47.273c-7.286 0-13.542 4.473-16.18 10.815h-57.477v-97.873h449.93v222.809c0 4.142 3.358 7.5 7.5 7.5zm-212.947-139.48h66.163v42.114h-66.163zm0 57.114h66.163v18.066h-66.163zm-86.872 156.942 8.18 42.841h-68.038l8.18-42.841zm-37.843-72.451c3.787 1.718 7.986 2.684 12.409 2.684 4.133 0 8.075-.838 11.664-2.35l10.906 57.117h-45.949zm-2.733-27.458v-3.926h30.284v3.926c0 8.35-6.792 15.142-15.142 15.142s-15.142-6.793-15.142-15.142zm-12.833-35.196h75.18v8.74c0 4.152-3.378 7.53-7.53 7.53h-67.65zm-30.545 0h15.546v18.76c0 6.898 5.612 12.51 12.51 12.51h.323v3.926c0 5.893 1.706 11.393 4.642 16.042l-24.194 126.708h-74.984c-4.136 0-7.5-3.364-7.5-7.5v-168.038c4.727 3.637 10.63 5.815 17.043 5.815 12.313 0 22.79-7.981 26.55-19.038h13.883c2.638 6.342 8.895 10.815 16.181 10.815zm-69.655-19.818c0-7.191 5.85-13.041 13.041-13.041s13.041 5.85 13.041 13.041-5.85 13.041-13.041 13.041-13.041-5.85-13.041-13.041zm52.135-37.089v31.092h-11.705c-2.755-12.589-13.985-22.044-27.389-22.044s-24.634 9.455-27.389 22.044h-21.724v-31.092z"/><path d="m75.49 66.901c-4.142 0-7.5 3.358-7.5 7.5s3.358 7.5 7.5 7.5h43.02c4.142 0 7.5-3.358 7.5-7.5s-3.358-7.5-7.5-7.5z"/><path d="m468.58 74.401c0-4.144-3.359-7.504-7.504-7.504-4.144 0-7.504 3.359-7.504 7.504 0 4.144 3.359 7.503 7.504 7.503 4.145.001 7.504-3.359 7.504-7.503z"/><path d="m447.57 74.401c0-4.144-3.359-7.504-7.504-7.504s-7.504 3.359-7.504 7.504c0 4.144 3.359 7.503 7.504 7.503s7.504-3.359 7.504-7.503z"/><path d="m426.56 74.401c0-4.144-3.359-7.504-7.504-7.504s-7.504 3.359-7.504 7.504c0 4.144 3.359 7.503 7.504 7.503s7.504-3.359 7.504-7.503z"/><path d="m329.864 144.5h-121.512c-2.931-8.708-11.168-15-20.852-15s-17.92 6.292-20.852 15h-59.297c-2.931-8.708-11.168-15-20.852-15-12.131 0-22 9.869-22 22s9.869 22 22 22c9.309 0 17.28-5.814 20.488-14h60.025c3.208 8.186 11.179 14 20.488 14s17.28-5.814 20.488-14h122.24c3.208 8.186 11.179 14 20.488 14 12.131 0 22-9.869 22-22s-9.869-22-22-22c-9.684 0-17.921 6.292-20.852 15zm-243.364 14c-3.86 0-7-3.14-7-7s3.14-7 7-7 7 3.14 7 7-3.14 7-7 7zm101 0c-3.86 0-7-3.14-7-7s3.14-7 7-7 7 3.14 7 7-3.14 7-7 7zm170.215-7c0 3.86-3.14 7-7 7s-7-3.14-7-7 3.14-7 7-7 7 3.14 7 7z"/><path d="m290.969 362.202h-20.17c-5.79 0-10.5 4.71-10.5 10.5v45.187h-10.432c-4.142 0-7.5 3.358-7.5 7.5s3.358 7.5 7.5 7.5h213.24c4.142 0 7.5-3.358 7.5-7.5s-3.358-7.5-7.5-7.5h-10.432v-78.6c0-5.79-4.71-10.5-10.5-10.5h-20.17c-5.79 0-10.5 4.71-10.5 10.5v78.6h-9.232v-34.05c0-5.79-4.71-10.5-10.5-10.5h-20.17c-5.79 0-10.5 4.71-10.5 10.5v34.05h-9.232v-100.874c0-5.79-4.71-10.5-10.5-10.5h-20.171c-5.79 0-10.5 4.71-10.5 10.5v100.875h-9.231v-45.187c0-5.79-4.711-10.501-10.5-10.501zm-4.5 55.687h-11.17v-40.687h11.17zm140.035-74.099h11.17v74.1h-11.17zm-50.401 44.549h11.17v29.55h-11.17zm-50.403-66.824h11.17v96.375h-11.17z"/><path d="m463.106 163.147h-61.029c-4.142 0-7.5 3.358-7.5 7.5s3.358 7.5 7.5 7.5h61.029c4.142 0 7.5-3.358 7.5-7.5s-3.357-7.5-7.5-7.5z"/><path d="m463.106 191.161h-61.029c-4.142 0-7.5 3.358-7.5 7.5s3.358 7.5 7.5 7.5h61.029c4.142 0 7.5-3.358 7.5-7.5s-3.357-7.5-7.5-7.5z"/><path d="m463.106 219.174h-61.029c-4.142 0-7.5 3.358-7.5 7.5s3.358 7.5 7.5 7.5h61.029c4.142 0 7.5-3.358 7.5-7.5s-3.357-7.5-7.5-7.5z"/><path d="m463.106 247.187h-61.029c-4.142 0-7.5 3.358-7.5 7.5s3.358 7.5 7.5 7.5h61.029c4.142 0 7.5-3.358 7.5-7.5s-3.357-7.5-7.5-7.5z"/><path d="m463.106 275.2h-61.029c-4.142 0-7.5 3.358-7.5 7.5s3.358 7.5 7.5 7.5h61.029c4.142 0 7.5-3.358 7.5-7.5s-3.357-7.5-7.5-7.5z"/></g></g></svg>