<svg id="Capa_1" enable-background="new 0 0 512 512" height="512" viewBox="0 0 512 512" width="512" xmlns="http://www.w3.org/2000/svg"><g><g><g><g><path d="m505.699 381.355-61.024-35.232c-3.945-2.278-8.657-2.277-12.603 0-3.946 2.278-6.302 6.358-6.302 10.914v5.959h-43.244c25.176-29.584 38.873-66.591 38.873-105.948 0-18.738-3.17-36.752-9-53.544 23.49-7.851 42.522-26.829 49.694-51.402 1.161-3.977-1.121-8.141-5.098-9.301-3.983-1.16-8.142 1.123-9.301 5.098-7.656 26.229-32.098 44.548-59.437 44.548-34.146 0-61.927-27.78-61.927-61.927s27.78-61.927 61.927-61.927c29.067 0 53.885 19.77 60.352 48.078.922 4.038 4.943 6.564 8.981 5.641 4.038-.922 6.564-4.944 5.642-8.982-3.817-16.709-13.299-31.871-26.698-42.693-13.607-10.991-30.753-17.043-48.276-17.043-33.033 0-61.264 20.932-72.141 50.226-18.643-7.263-38.917-11.265-60.117-11.265h-113c-4.142 0-7.5 3.358-7.5 7.5s3.358 7.5 7.5 7.5h113c19.895 0 38.894 3.869 56.29 10.876-.625 3.94-.958 7.976-.958 12.089 0 3.272.229 6.49.628 9.657-16.946-8.164-35.925-12.754-55.96-12.754-16.413 0-32.119 3.079-46.579 8.678h-130.692c-4.142 0-7.5 3.358-7.5 7.5v9.307l-53.832-31.08 53.832-31.08v9.307c0 4.142 3.358 7.5 7.5 7.5h29.271c4.142 0 7.5-3.358 7.5-7.5s-3.358-7.5-7.5-7.5h-21.771v-5.959c0-4.556-2.355-8.636-6.301-10.915-3.945-2.278-8.657-2.278-12.603 0l-61.023 35.232c-3.947 2.278-6.302 6.358-6.302 10.915s2.355 8.636 6.301 10.914l61.024 35.232c1.973 1.139 4.137 1.708 6.301 1.708s4.329-.57 6.302-1.708c3.946-2.278 6.301-6.358 6.301-10.915v-5.959h43.229c-25.171 29.584-38.858 66.594-38.858 105.948 0 18.005 2.934 35.339 8.336 51.566-30.38 10.29-52.316 39.055-52.316 72.866 0 42.417 34.509 76.927 76.927 76.927 32.367 0 60.109-20.103 71.448-48.471 18.887 7.481 39.469 11.605 61.006 11.605h80c4.143 0 7.5-3.358 7.5-7.5s-3.357-7.5-7.5-7.5h-80c-20.098 0-39.281-3.949-56.821-11.092.836-4.534 1.294-9.198 1.294-13.969 0-2.713-.145-5.393-.421-8.034 16.943 8.161 35.917 12.749 55.948 12.749 15.938 0 31.208-2.904 45.319-8.198h131.951c4.143 0 7.5-3.358 7.5-7.5v-9.307l53.833 31.08-53.833 31.08v-9.308c0-4.142-3.357-7.5-7.5-7.5h-62.271c-4.143 0-7.5 3.358-7.5 7.5s3.357 7.5 7.5 7.5h54.771v5.96c0 4.556 2.355 8.636 6.302 10.914 1.973 1.139 4.137 1.708 6.302 1.708 2.164 0 4.328-.569 6.301-1.708l61.024-35.232c3.945-2.278 6.301-6.358 6.301-10.914s-2.356-8.637-6.302-10.915zm-108.035-174.494c4.839 13.452 7.801 27.784 8.547 42.688h-21.035c-.849-15.269-4.363-29.835-10.074-43.251 4.279.741 8.67 1.149 13.157 1.149 3.171-.001 6.311-.2 9.405-.586zm-292.063 50.188c0-40.189 15.715-77.692 44.308-105.948h31.565c-33.164 23.45-54.86 62.092-54.86 105.708 0 17.26 3.414 33.733 9.577 48.802-4.117-.684-8.337-1.057-12.645-1.057-3.365 0-6.672.241-9.924.662-5.193-15.121-8.021-31.321-8.021-48.167zm17.945 186.358c-34.146 0-61.927-27.78-61.927-61.927s27.78-61.927 61.927-61.927 61.927 27.78 61.927 61.927-27.78 61.927-61.927 61.927zm71.709-89.723c-7.249-18.636-21.552-33.763-39.623-42.092-8.923-16.281-14.018-34.944-14.018-54.783 0-63.073 51.313-114.386 114.386-114.386 22.555 0 43.6 6.57 61.337 17.886 7.341 17.411 20.913 31.57 37.906 39.679 9.629 16.75 15.142 36.153 15.142 56.821 0 63.073-51.313 114.386-114.386 114.386-22.303 0-43.131-6.425-60.744-17.511zm189.893-89.136h21.068c-1.829 37.34-17.316 71.957-44.122 98.448h-32.26c31.567-22.015 52.899-57.725 55.314-98.448z"/><path d="m256 163.838c-51.264 0-92.97 41.706-92.97 92.97s41.706 92.97 92.97 92.97 92.97-41.706 92.97-92.97-41.706-92.97-92.97-92.97zm0 170.94c-42.993 0-77.97-34.977-77.97-77.97s34.977-77.97 77.97-77.97c42.992 0 77.97 34.978 77.97 77.97s-34.978 77.97-77.97 77.97z"/><path d="m265.822 249.309h-19.644c-5.665 0-10.273-4.608-10.273-10.273s4.608-10.273 10.273-10.273h34.611c4.143 0 7.5-3.358 7.5-7.5s-3.357-7.5-7.5-7.5h-17.289v-10.741c0-4.142-3.357-7.5-7.5-7.5-4.142 0-7.5 3.358-7.5 7.5v10.741h-2.322c-13.936 0-25.273 11.337-25.273 25.273s11.337 25.273 25.273 25.273h19.644c5.664 0 10.272 4.608 10.272 10.273s-4.608 10.273-10.272 10.273h-34.611c-4.142 0-7.5 3.358-7.5 7.5s3.358 7.5 7.5 7.5h17.289v10.741c0 4.142 3.358 7.5 7.5 7.5 4.143 0 7.5-3.358 7.5-7.5v-10.741h2.322c13.936 0 25.272-11.337 25.272-25.273s-11.336-25.273-25.272-25.273z"/><path d="m388.259 181.71c4.143 0 7.5-3.358 7.5-7.5v-7.317h.479c12.096 0 21.937-9.841 21.937-21.937s-9.841-21.937-21.937-21.937h-15.958c-3.825 0-6.937-3.112-6.937-6.937s3.111-6.937 6.937-6.937h28.114c4.143 0 7.5-3.358 7.5-7.5s-3.357-7.5-7.5-7.5h-12.636v-7.317c0-4.142-3.357-7.5-7.5-7.5s-7.5 3.358-7.5 7.5v7.317h-.479c-12.096 0-21.937 9.841-21.937 21.937s9.841 21.937 21.937 21.937h15.957c3.825 0 6.937 3.112 6.937 6.937s-3.111 6.937-6.937 6.937h-28.114c-4.143 0-7.5 3.358-7.5 7.5s3.357 7.5 7.5 7.5h12.636v7.317c.001 4.143 3.358 7.5 7.501 7.5z"/><path d="m131.525 373.98h-15.957c-3.825 0-6.937-3.112-6.937-6.937s3.112-6.937 6.937-6.937h28.114c4.142 0 7.5-3.358 7.5-7.5s-3.358-7.5-7.5-7.5h-12.636v-7.317c0-4.142-3.358-7.5-7.5-7.5s-7.5 3.358-7.5 7.5v7.317h-.478c-12.096 0-21.937 9.841-21.937 21.937s9.841 21.937 21.937 21.937h15.957c3.825 0 6.937 3.112 6.937 6.937s-3.112 6.937-6.937 6.937h-28.114c-4.142 0-7.5 3.358-7.5 7.5s3.358 7.5 7.5 7.5h12.635v7.317c0 4.142 3.358 7.5 7.5 7.5s7.5-3.358 7.5-7.5v-7.317h.479c12.096 0 21.937-9.841 21.937-21.937s-9.841-21.937-21.937-21.937z"/><path d="m119 74.5h104c4.142 0 7.5-3.358 7.5-7.5s-3.358-7.5-7.5-7.5h-104c-4.142 0-7.5 3.358-7.5 7.5s3.358 7.5 7.5 7.5z"/><path d="m381 437.5h-104c-4.143 0-7.5 3.358-7.5 7.5s3.357 7.5 7.5 7.5h104c4.143 0 7.5-3.358 7.5-7.5s-3.357-7.5-7.5-7.5z"/></g></g></g></g></svg>