<svg id="Capa_1" enable-background="new 0 0 512 512" height="512" viewBox="0 0 512 512" width="512" xmlns="http://www.w3.org/2000/svg"><g><g><path d="m113.512 288.99h-69.568c-4.143 0-7.5 3.358-7.5 7.5s3.357 7.5 7.5 7.5h69.567c4.143 0 7.5-3.358 7.5-7.5s-3.357-7.5-7.499-7.5z"/><path d="m113.512 319.768h-69.568c-4.143 0-7.5 3.358-7.5 7.5s3.357 7.5 7.5 7.5h69.567c4.143 0 7.5-3.358 7.5-7.5s-3.357-7.5-7.499-7.5z"/><path d="m121.012 358.045c0-4.142-3.357-7.5-7.5-7.5h-69.568c-4.143 0-7.5 3.358-7.5 7.5s3.357 7.5 7.5 7.5h69.567c4.143 0 7.501-3.357 7.501-7.5z"/><path d="m43.944 381.323c-4.143 0-7.5 3.358-7.5 7.5s3.357 7.5 7.5 7.5h41.036c4.143 0 7.5-3.358 7.5-7.5s-3.357-7.5-7.5-7.5z"/><path d="m46.686 185.362h44.518c5.647 0 10.241-4.594 10.241-10.241v-44.517c0-5.647-4.594-10.242-10.241-10.242h-44.518c-5.647 0-10.241 4.594-10.241 10.242v44.517c-.001 5.647 4.593 10.241 10.241 10.241zm4.758-50h35v35h-35z"/><path d="m36.444 255.905c0 5.647 4.594 10.241 10.241 10.241h44.518c5.647 0 10.241-4.594 10.241-10.241v-44.517c0-5.647-4.594-10.242-10.241-10.242h-44.517c-5.647 0-10.241 4.594-10.241 10.242v44.517zm15-39.759h35v35h-35z"/><path d="m461.076 69.854c4.143 0 7.5-3.358 7.5-7.5s-3.357-7.5-7.5-7.5h-23c-4.143 0-7.5 3.358-7.5 7.5s3.357 7.5 7.5 7.5z"/><path d="m458.076 293.547c5.79 0 10.5-4.71 10.5-10.5v-105.527c0-5.79-4.71-10.5-10.5-10.5h-28.197c-5.79 0-10.5 4.71-10.5 10.5v105.527c0 5.79 4.71 10.5 10.5 10.5zm-23.697-111.527h19.197v96.527h-19.197z"/><path d="m271.862 236.447h-28.197c-5.79 0-10.5 4.71-10.5 10.5v36.1c0 5.79 4.71 10.5 10.5 10.5h28.197c5.79 0 10.5-4.71 10.5-10.5v-36.1c0-5.789-4.71-10.5-10.5-10.5zm-4.5 42.1h-19.197v-27.1h19.197z"/><path d="m333.934 201.11h-8.044c-15.761-20.377-40.43-33.532-68.126-33.532-47.482 0-86.112 38.629-86.112 86.112s38.63 86.112 86.112 86.112c33.108 0 61.894-18.793 76.299-46.261 5.73-.07 10.37-4.748 10.37-10.493v-71.438c.001-5.79-4.709-10.5-10.499-10.5zm-76.17 123.692c-39.212 0-71.112-31.901-71.112-71.112s31.9-71.112 71.112-71.112c18.4 0 35.185 7.031 47.824 18.539-5.721.081-10.351 4.753-10.351 10.492v71.438c0 5.79 4.71 10.5 10.5 10.5h10.857c-12.801 18.842-34.384 31.255-58.83 31.255zm71.67-46.255h-19.197v-62.437h19.197z"/><path d="m493.101 30.231h-325.101c-4.143 0-7.5 3.358-7.5 7.5s3.357 7.5 7.5 7.5h325.101c2.15 0 3.899 1.749 3.899 3.899v32.397h-399.927v-36.296h35.927c4.143 0 7.5-3.358 7.5-7.5s-3.357-7.5-7.5-7.5h-114.101c-10.42 0-18.899 8.478-18.899 18.899v363.63c0 10.421 8.479 18.899 18.899 18.899h276.101c4.143 0 7.5-3.358 7.5-7.5s-3.357-7.5-7.5-7.5h-276.101c-2.15 0-3.899-1.75-3.899-3.899v-316.233h482v316.233c0 2.15-1.749 3.899-3.899 3.899h-22.222l-68.169-68.17c-5.421-5.42-13.536-6.518-20.067-3.327l-24.419-24.419c5.616-8.391 10.228-17.508 13.623-27.197h24.159c5.79 0 10.5-4.71 10.5-10.5v-68.043c0-4.142-3.357-7.5-7.5-7.5s-7.5 3.358-7.5 7.5v63.543h-19.197v-130.723h19.197v32.181c0 4.142 3.357 7.5 7.5 7.5s7.5-3.358 7.5-7.5v-36.681c0-5.79-4.71-10.5-10.5-10.5h-28.197c-5.79 0-10.5 4.71-10.5 10.5v41.924c-21.818-31.637-58.291-52.424-99.544-52.424-66.646 0-120.867 54.221-120.867 120.867s54.221 120.867 120.867 120.867c24.803 0 47.876-7.517 67.077-20.385l24.627 24.627c-2.695 6.371-1.461 14.023 3.724 19.208l18.653 18.653h-41.846c-4.143 0-7.5 3.358-7.5 7.5s3.357 7.5 7.5 7.5h56.844l44.99 44.991c3.412 3.412 7.894 5.118 12.375 5.118s8.963-1.706 12.375-5.118l24.768-24.768c5.463-5.463 6.54-13.666 3.254-20.223h8.494c10.421 0 18.899-8.478 18.899-18.899v-363.631c.001-10.421-8.478-18.899-18.898-18.899zm-411.028 51.296h-67.073v-32.397c0-2.15 1.749-3.899 3.899-3.899h63.174zm175.691 278.03c-58.375 0-105.867-47.492-105.867-105.867s47.492-105.867 105.867-105.867c45.723 0 84.766 29.138 99.544 69.819v65.405c0 1.487.315 2.9.875 4.183-14.061 41.987-53.762 72.327-100.419 72.327zm79.088-14.587c4.345-3.772 8.425-7.84 12.195-12.188l22.311 22.31-12.191 12.192zm133.893 96.306-24.768 24.768c-.975.975-2.561.975-3.535 0l-78.643-78.644c-.976-.975-.976-2.561 0-3.536l24.768-24.768c.487-.487 1.127-.731 1.768-.731s1.28.244 1.768.731l78.644 78.644c.974.975.974 2.562-.002 3.536z"/></g></g></svg>