<svg id="Capa_1" enable-background="new 0 0 512 512" height="512" viewBox="0 0 512 512" width="512" xmlns="http://www.w3.org/2000/svg"><g><g><path d="m485.96 497h-18.836v-147c0-4.142-3.357-7.5-7.5-7.5s-7.5 3.358-7.5 7.5v147h-37.672v-207.217h37.672v25.217c0 4.142 3.357 7.5 7.5 7.5s7.5-3.358 7.5-7.5v-28.716c0-6.341-5.159-11.5-11.5-11.5h-44.672c-6.341 0-11.5 5.159-11.5 11.5v210.716h-12.653v-116.23c0-6.341-5.159-11.5-11.5-11.5h-44.672c-6.341 0-11.5 5.159-11.5 11.5v116.23h-12.652v-167.585c0-6.341-5.159-11.5-11.5-11.5h-44.672c-6.341 0-11.5 5.159-11.5 11.5v167.585h-12.653v-40c0-4.142-3.357-7.5-7.5-7.5s-7.5 3.358-7.5 7.5v40h-37.672v-208.856h37.672v133.856c0 4.142 3.357 7.5 7.5 7.5s7.5-3.358 7.5-7.5v-137.356c0-6.341-5.159-11.5-11.5-11.5h-44.672c-6.341 0-11.5 5.159-11.5 11.5v212.356h-12.652v-117.529c0-6.341-5.159-11.5-11.5-11.5h-44.673c-6.341 0-11.5 5.159-11.5 11.5v117.529h-18.836c-4.143 0-7.5 3.358-7.5 7.5s3.357 7.5 7.5 7.5h426.643c4.143 0 7.5-3.358 7.5-7.5s-3.358-7.5-7.5-7.5zm-355.135 0h-37.672v-114.029h37.672zm160.649 0h-37.672v-164.085h37.672zm80.325 0h-37.672v-112.73h37.672z"/><path d="m122.637 170.033c0 16.098 5.502 30.926 14.704 42.736l-6.863 6.638c-5.319-3.485-11.669-5.519-18.489-5.519-18.657 0-33.836 15.179-33.836 33.836s15.179 33.836 33.836 33.836 33.836-15.179 33.836-33.836c0-6.418-1.796-12.424-4.912-17.542l6.849-6.624c12.087 10.077 27.621 16.152 44.551 16.152 19.735 0 37.565-8.26 50.255-21.488l79.689 61.4c-2.004 4.319-3.131 9.124-3.131 14.19 0 18.657 15.179 33.836 33.836 33.836s33.836-15.179 33.836-33.836c0-6.813-2.031-13.158-5.51-18.473l34.442-35.571c5.122 3.122 11.133 4.922 17.557 4.922 18.657 0 33.836-15.179 33.836-33.836s-15.179-33.836-33.836-33.836-33.836 15.179-33.836 33.836c0 6.813 2.031 13.158 5.51 18.473l-34.442 35.57c-5.122-3.121-11.133-4.922-17.557-4.922-8.179 0-15.689 2.918-21.546 7.767l-79.67-61.385c6.493-10.584 10.244-23.024 10.244-36.325 0-9.139-1.757-18.045-5.221-26.473-1.575-3.831-5.954-5.657-9.788-4.085-3.831 1.575-5.66 5.957-4.085 9.789 2.716 6.609 4.094 13.597 4.094 20.77 0 9.857-2.635 19.105-7.218 27.099l-16.754-12.909c2.004-4.319 3.131-9.125 3.131-14.191 0-18.657-15.179-33.836-33.836-33.836s-33.836 15.179-33.836 33.836c0 6.418 1.796 12.424 4.912 17.542l-15.198 14.699c-6.629-9.047-10.555-20.192-10.555-32.241 0-7.296 1.445-14.257 4.051-20.626h4.115c6.771 0 12.278-5.508 12.278-12.279v-9.663c9.377-7.561 21.278-12.109 34.233-12.109 11.21 0 21.992 3.379 31.181 9.772 3.4 2.366 8.073 1.527 10.439-1.873s1.527-8.074-1.873-10.44c-11.715-8.151-25.459-12.46-39.747-12.46-12.436 0-24.116 3.285-34.233 9.019v-21.827c0-6.771-5.508-12.279-12.278-12.279h-128.832c-6.771 0-12.278 5.508-12.278 12.279v49.583c0 6.771 5.508 12.279 12.278 12.279h108.816c-2.032 6.521-3.149 13.442-3.149 20.625zm-10.648 96.527c-10.386 0-18.836-8.45-18.836-18.836s8.45-18.836 18.836-18.836 18.836 8.45 18.836 18.836-8.45 18.836-18.836 18.836zm321.299-74.542c10.386 0 18.836 8.45 18.836 18.836s-8.45 18.836-18.836 18.836-18.836-8.45-18.836-18.836 8.45-18.836 18.836-18.836zm-80.325 82.958c10.386 0 18.836 8.45 18.836 18.836s-8.45 18.836-18.836 18.836-18.836-8.45-18.836-18.836 8.45-18.836 18.836-18.836zm-160.65-123.779c10.386 0 18.836 8.45 18.836 18.836s-8.45 18.836-18.836 18.836-18.836-8.45-18.836-18.836 8.451-18.836 18.836-18.836zm-18.488 47.152c5.319 3.485 11.669 5.519 18.489 5.519 8.179 0 15.689-2.918 21.546-7.767l16.751 12.907c-9.873 9.702-23.395 15.701-38.297 15.701-12.702 0-24.396-4.366-33.688-11.659zm-154.134-63.942v-44.141h123.389v44.141z"/><path d="m56.315 104.837h-18.05c-4.143 0-7.5 3.358-7.5 7.5s3.357 7.5 7.5 7.5h18.051c4.143 0 7.5-3.358 7.5-7.5s-3.358-7.5-7.501-7.5z"/><path d="m124.507 104.837h-44.765c-4.143 0-7.5 3.358-7.5 7.5s3.357 7.5 7.5 7.5h44.765c4.143 0 7.5-3.358 7.5-7.5s-3.358-7.5-7.5-7.5z"/><path d="m416.944 145.929c.089.184.185.364.288.541l9.714 16.554c1.347 2.294 3.809 3.704 6.469 3.704 2.661 0 5.122-1.41 6.469-3.705l9.714-16.556c.104-.176.199-.356.287-.539 33.323-7.594 57.424-37.756 57.424-72.035 0-20.384-8.121-39.366-22.867-53.447-14.739-14.074-34.101-21.299-54.516-20.366-18.255.842-35.512 8.473-48.589 21.487-13.079 13.016-20.793 30.235-21.719 48.485-1.833 36.114 22.233 67.895 57.326 75.877zm-42.346-75.115c1.517-29.883 26.123-54.371 56.019-55.749 16.285-.753 31.718 5.012 43.465 16.23 11.754 11.224 18.227 26.353 18.227 42.599 0 27.539-19.511 51.743-46.392 57.551-4.286.926-7.876 3.936-9.563 7.953l-2.939 5.011-2.94-5.011c-1.688-4.016-5.286-7.027-9.584-7.958-28.296-6.126-47.764-31.623-46.293-60.626z"/><path d="m425.785 81.394h15.26c3.477 0 6.306 2.829 6.306 6.306 0 3.478-2.829 6.307-6.306 6.307h-26.886c-4.143 0-7.5 3.358-7.5 7.5s3.357 7.5 7.5 7.5h11.756v6.669c0 4.142 3.357 7.5 7.5 7.5s7.5-3.358 7.5-7.5v-6.669h.13c11.748 0 21.306-9.558 21.306-21.307 0-11.748-9.558-21.306-21.306-21.306h-15.26c-3.478 0-6.307-2.829-6.307-6.307 0-3.477 2.829-6.306 6.307-6.306h26.886c4.143 0 7.5-3.358 7.5-7.5s-3.357-7.5-7.5-7.5h-11.756v-6.669c0-4.142-3.357-7.5-7.5-7.5s-7.5 3.358-7.5 7.5v6.669h-.13c-11.748 0-21.307 9.558-21.307 21.307 0 11.748 9.559 21.306 21.307 21.306z"/></g></g></svg>