<svg id="Capa_1" enable-background="new 0 0 512 512" height="512" viewBox="0 0 512 512" width="512" xmlns="http://www.w3.org/2000/svg"><g><g><path d="m245.501 358.159c28.361 0 53.841-17.936 63.404-44.63 1.397-3.899-.632-8.193-4.531-9.59-3.901-1.396-8.193.632-9.59 4.531-7.433 20.748-27.238 34.688-49.283 34.688-28.861 0-52.342-23.48-52.342-52.342s23.48-52.342 52.342-52.342c23.958 0 44.815 16.192 50.721 39.376 1.022 4.014 5.106 6.44 9.12 5.417s6.439-5.105 5.417-9.12c-7.601-29.835-34.436-50.673-65.257-50.673-37.132 0-67.342 30.209-67.342 67.342s30.209 67.343 67.341 67.343z"/><path d="m245.501 252.942c-20.884 0-37.875 16.991-37.875 37.875s16.991 37.875 37.875 37.875 37.875-16.991 37.875-37.875-16.991-37.875-37.875-37.875zm0 60.75c-12.613 0-22.875-10.262-22.875-22.875s10.262-22.875 22.875-22.875 22.875 10.262 22.875 22.875-10.262 22.875-22.875 22.875z"/><path d="m453.992 283.8-22.739-.391c-.074-.001-.147-.002-.222-.002-6.885 0-12.61 5.538-12.808 12.446-1.301 45.25-20.023 87.573-52.717 119.172-32.451 31.363-75.018 48.586-120.002 48.586-.449 0-.902-.001-1.352-.005-92.413-.709-168.419-75.35-171.355-167.253 2.038.541 4.176.832 6.382.832h.102l4.402 20.396c2.208 10.226 11.403 17.648 21.864 17.648h18.875c9.231 0 17.438-5.743 20.78-14.1h2.649c1.85 5.971 4.256 11.784 7.164 17.304l-20.023 20.023c-4.86 4.859-5.377 12.622-1.202 18.058 7.5 9.762 16.252 18.514 26.014 26.014 5.434 4.174 13.196 3.658 18.057-1.202l20.023-20.023c5.521 2.907 11.333 5.314 17.304 7.164v28.329c0 6.875 5.123 12.729 11.916 13.617 6.076.795 12.266 1.199 18.397 1.199 6.132 0 12.322-.403 18.396-1.199 6.793-.889 11.917-6.743 11.917-13.617v-28.329c5.971-1.85 11.784-4.256 17.304-7.164l20.023 20.023c4.859 4.86 12.622 5.376 18.058 1.202 9.762-7.5 18.515-16.252 26.013-26.014 4.176-5.435 3.659-13.198-1.201-18.057l-20.023-20.024c2.908-5.521 5.314-11.334 7.164-17.304h28.329c6.874 0 12.728-5.123 13.617-11.917.795-6.073 1.198-12.262 1.198-18.397s-.403-12.324-1.198-18.397c-.89-6.793-6.744-11.916-13.617-11.916h-28.329c-1.849-5.97-4.256-11.782-7.164-17.303l20.023-20.024c4.86-4.86 5.376-12.623 1.202-18.057-7.5-9.763-16.252-18.516-26.014-26.015-5.435-4.174-13.198-3.658-18.057 1.202l-20.023 20.023c-5.521-2.908-11.334-5.314-17.304-7.164v-28.329c0-6.873-5.123-12.728-11.917-13.617-12.146-1.59-24.647-1.59-36.795 0-6.793.89-11.916 6.744-11.916 13.617v28.329c-5.969 1.849-11.782 4.255-17.304 7.164l-15.29-15.289c19.773-16.719 32.447-39.683 36.079-64.942 8.796-1.369 17.757-2.076 26.828-2.076h146.084v9.559c0 4.003 2.192 7.664 5.72 9.554s7.791 1.687 11.123-.53l50.732-33.752c3.027-2.014 4.834-5.388 4.834-9.024s-1.807-7.01-4.835-9.024l-50.732-33.753c-3.333-2.217-7.595-2.42-11.123-.529-3.528 1.89-5.719 5.551-5.719 9.553v9.559h-144.235c-11.075 0-22.033.839-32.818 2.444-5.139-15.653-13.971-29.966-26.063-41.882-20.171-19.879-46.893-30.59-75.23-30.185-27.046.395-52.645 11.181-72.08 30.373-19.439 19.195-30.543 44.655-31.267 71.692-.89 33.237 14.215 65.207 40.425 85.651-16.964 31.455-25.98 66.589-25.997 102.979-.029 59.012 22.99 114.557 64.817 156.403 41.826 41.846 97.357 64.891 156.365 64.891 50.783 0 100.427-17.723 139.788-49.905 3.207-2.622 3.681-7.347 1.059-10.554-2.621-3.206-7.346-3.68-10.554-1.059-36.688 29.997-82.961 46.518-130.293 46.518-55 0-106.764-21.484-145.756-60.494-38.994-39.011-60.454-90.788-60.426-145.792.016-31.686 7.388-62.347 21.273-90.16.634 1.376 1.203 2.797 1.671 4.276l3.659 11.579c-6.99 4.415-11.646 12.205-11.646 21.066 0 6.669 2.64 12.73 6.924 17.205-.033.169-.069.336-.102.505-4.224 4.464-6.822 10.482-6.822 17.098 0 4.665 1.292 9.033 3.533 12.769-.073 2.403-.115 4.812-.096 7.23.379 49.411 19.963 95.998 55.146 131.18 35.182 35.182 81.769 54.766 131.179 55.146.492.003.979.005 1.47.005 48.891-.001 95.16-18.719 130.424-52.801 35.007-33.834 55.273-78.991 57.212-127.367l18.39.316c-1.809 47.219-20.015 92.698-51.402 128.282-2.74 3.106-2.443 7.846.663 10.586 3.108 2.741 7.847 2.443 10.586-.663 34.192-38.764 53.803-88.478 55.22-139.985.095-3.449-1.167-6.722-3.553-9.217-2.389-2.497-5.604-3.904-9.056-3.964zm-384.717-46.325c0-5.461 4.443-9.904 9.904-9.904h71.25c5.461 0 9.904 4.443 9.904 9.904s-4.443 9.904-9.904 9.904h-71.25c-5.461 0-9.904-4.443-9.904-9.904zm45.528-115.401c-9.442 0-17.124-7.682-17.124-17.124s7.682-17.124 17.124-17.124 17.124 7.682 17.124 17.124-7.681 17.124-17.124 17.124zm45.529 150.209c0 5.461-4.443 9.904-9.904 9.904h-71.25c-5.461 0-9.904-4.443-9.904-9.904s4.443-9.904 9.904-9.904h71.25c5.461 0 9.904 4.443 9.904 9.904zm-35.91 47.947h-18.875c-3.446 0-6.475-2.445-7.202-5.813l-3.719-17.231h40.578l-3.568 17.175c-.707 3.401-3.741 5.869-7.214 5.869zm79.763-106.261c5.141-2.768 10.589-5.023 16.191-6.703 5.868-1.759 9.811-7.042 9.811-13.147v-28.169c10.129-1.231 20.5-1.231 30.627 0v28.169c0 6.105 3.943 11.388 9.81 13.147 5.603 1.68 11.051 3.935 16.191 6.702 5.395 2.906 11.92 1.958 16.236-2.358l19.91-19.91c8.066 6.313 15.343 13.589 21.657 21.657l-19.91 19.91c-4.315 4.315-5.264 10.839-2.359 16.235 2.768 5.141 5.023 10.588 6.703 16.191 1.759 5.868 7.042 9.811 13.147 9.811h28.169c.616 5.064.928 10.209.928 15.313s-.312 10.25-.928 15.313h-28.169c-6.105 0-11.388 3.943-13.147 9.81-1.68 5.603-3.935 11.051-6.703 16.193-2.904 5.395-1.956 11.919 2.359 16.234l19.91 19.911c-6.313 8.066-13.591 15.343-21.656 21.657l-19.911-19.911c-4.315-4.315-10.84-5.264-16.235-2.359-5.139 2.767-10.587 5.022-16.192 6.703-5.868 1.76-9.81 7.043-9.81 13.147v28.169c-10.132 1.232-20.493 1.232-30.627 0v-28.169c0-6.104-3.942-11.387-9.81-13.147-5.605-1.681-11.053-3.936-16.193-6.703-5.394-2.904-11.919-1.956-16.235 2.359l-19.91 19.91c-8.066-6.313-15.343-13.59-21.656-21.656l19.91-19.911c4.315-4.315 5.264-10.839 2.359-16.235-2.767-5.139-5.022-10.587-6.703-16.192-1.76-5.868-7.043-9.81-13.147-9.81h-.137l1.859-8.947c13.688-.052 24.808-11.202 24.808-24.901 0-6.768-2.717-12.911-7.114-17.404 4.397-4.493 7.114-10.636 7.114-17.404 0-8.861-4.656-16.651-11.646-21.066l3.733-11.813c1.014-3.208 2.529-6.243 4.478-9.04l16.053 16.053c4.317 4.318 10.841 5.266 16.235 2.361zm43.164-129.334h149.511c5.363 0 9.726-4.363 9.726-9.726v-7.066l39.059 25.986-39.059 25.986v-7.067c0-5.363-4.363-9.726-9.726-9.726h-151.359c-8.689 0-17.286.598-25.749 1.757-.01-6.127-.538-12.17-1.567-18.08 9.593-1.357 19.33-2.064 29.164-2.064zm-222.464 17.842c.62-23.146 10.142-44.959 26.812-61.42 16.668-16.459 38.602-25.71 61.759-26.048 24.291-.325 47.195 8.833 64.483 25.871 17.292 17.042 26.815 39.795 26.815 64.071 0 27.843-12.599 53.671-34.565 70.861-8.174 6.397-14.078 14.788-17.073 24.265l-3.948 12.495h-26.865v-44.057c24.847-2.882 45.84-19.936 53.528-44.254 1.249-3.949-.94-8.163-4.89-9.412-3.95-1.251-8.164.941-9.412 4.89-5.704 18.04-20.974 30.855-39.226 33.639v-17.197c14.106-3.388 24.624-16.1 24.624-31.231 0-17.713-14.411-32.124-32.124-32.124s-32.124 14.411-32.124 32.124c0 15.13 10.518 27.842 24.624 31.23v17.196c-23.471-3.621-41.5-23.957-41.5-48.426 0-27.019 21.982-49.001 49.001-49.001 21.09 0 39.761 13.436 46.459 33.432 1.316 3.928 5.565 6.044 9.494 4.729 3.928-1.316 6.045-5.566 4.729-9.494-8.75-26.119-33.136-43.667-60.683-43.667-35.29 0-64.001 28.711-64.001 64.001 0 32.751 24.734 59.819 56.5 63.546v44.074h-26.863l-3.874-12.26c-3.082-9.752-8.833-18.086-16.633-24.1-22.713-17.511-35.814-45.075-35.047-73.733z"/><path d="m500.401 200.921-23.983-41.54c-2.326-4.03-6.661-6.533-11.314-6.533h-47.967c-4.652 0-8.988 2.503-11.314 6.532l-23.983 41.54c-2.327 4.03-2.327 9.036 0 13.065l23.983 41.541c2.327 4.029 6.662 6.532 11.314 6.532h47.967c4.653 0 8.989-2.503 11.314-6.533l23.983-41.54c2.327-4.029 2.327-9.035 0-13.064zm-36.415 46.138h-45.732l-22.866-39.605 22.866-39.605h45.732l22.866 39.605z"/><path d="m441.12 178.991c-15.694 0-28.462 12.768-28.462 28.462s12.768 28.462 28.462 28.462 28.462-12.768 28.462-28.462-12.768-28.462-28.462-28.462zm0 41.924c-7.423 0-13.462-6.039-13.462-13.462s6.039-13.462 13.462-13.462 13.462 6.039 13.462 13.462-6.039 13.462-13.462 13.462z"/></g></g></svg>