<svg id="Capa_1" enable-background="new 0 0 512 512" height="512" viewBox="0 0 512 512" width="512" xmlns="http://www.w3.org/2000/svg"><g><g><path d="m156.738 127.256c-5.79 0-10.5 4.71-10.5 10.5v35.356c0 5.79 4.71 10.5 10.5 10.5h35.356c5.79 0 10.5-4.71 10.5-10.5v-35.356c0-5.79-4.71-10.5-10.5-10.5zm30.856 41.356h-26.356v-26.356h26.356z"/><path d="m224.462 127.256c-5.79 0-10.5 4.71-10.5 10.5v35.356c0 5.79 4.71 10.5 10.5 10.5h35.355c5.79 0 10.5-4.71 10.5-10.5v-35.356c0-5.79-4.71-10.5-10.5-10.5zm30.855 41.356h-26.355v-26.356h26.355z"/><path d="m292.184 183.612h35.355c5.79 0 10.5-4.71 10.5-10.5v-35.356c0-5.79-4.71-10.5-10.5-10.5h-35.355c-5.79 0-10.5 4.71-10.5 10.5v35.356c0 5.789 4.71 10.5 10.5 10.5zm4.5-41.356h26.355v26.356h-26.355z"/><path d="m359.907 127.256c-5.79 0-10.5 4.71-10.5 10.5v35.356c0 5.79 4.71 10.5 10.5 10.5h35.356c5.79 0 10.5-4.71 10.5-10.5v-35.356c0-5.79-4.71-10.5-10.5-10.5zm30.856 41.356h-26.356v-26.356h26.356z"/><path d="m330.888 99.041v-18c0-6.893-5.607-12.5-12.5-12.5h-84.775c-6.893 0-12.5 5.607-12.5 12.5v18c0 6.893 5.607 12.5 12.5 12.5h84.775c6.893 0 12.5-5.607 12.5-12.5zm-15-2.5h-79.775v-13h79.775z"/><path d="m201.268 281.148h126.384c4.143 0 7.5-3.358 7.5-7.5s-3.357-7.5-7.5-7.5h-126.384c-4.143 0-7.5 3.358-7.5 7.5s3.358 7.5 7.5 7.5z"/><circle cx="351.823" cy="273.648" r="7.5"/><path d="m201.268 336.652h126.384c4.143 0 7.5-3.358 7.5-7.5s-3.357-7.5-7.5-7.5h-126.384c-4.143 0-7.5 3.358-7.5 7.5s3.358 7.5 7.5 7.5z"/><path d="m201.268 392.156h126.384c4.143 0 7.5-3.358 7.5-7.5s-3.357-7.5-7.5-7.5h-126.384c-4.143 0-7.5 3.358-7.5 7.5s3.358 7.5 7.5 7.5z"/><circle cx="351.823" cy="384.656" r="7.5"/><path d="m327.652 432.66h-126.384c-4.143 0-7.5 3.358-7.5 7.5s3.357 7.5 7.5 7.5h126.384c4.143 0 7.5-3.358 7.5-7.5s-3.357-7.5-7.5-7.5z"/><circle cx="351.823" cy="440.16" r="7.5"/><path d="m45.258 367.018h68.068c4.143 0 7.5-3.358 7.5-7.5s-3.357-7.5-7.5-7.5h-68.068c-4.143 0-7.5 3.358-7.5 7.5s3.357 7.5 7.5 7.5z"/><path d="m45.258 393.016h68.068c4.143 0 7.5-3.358 7.5-7.5s-3.357-7.5-7.5-7.5h-68.068c-4.143 0-7.5 3.358-7.5 7.5s3.357 7.5 7.5 7.5z"/><path d="m45.258 418.896h68.068c4.143 0 7.5-3.358 7.5-7.5s-3.357-7.5-7.5-7.5h-68.068c-4.143 0-7.5 3.358-7.5 7.5s3.357 7.5 7.5 7.5z"/><path d="m120.826 437.511c0-4.142-3.357-7.5-7.5-7.5h-68.068c-4.143 0-7.5 3.358-7.5 7.5s3.357 7.5 7.5 7.5h68.068c4.143 0 7.5-3.358 7.5-7.5z"/><path d="m45.258 456.008c-4.143 0-7.5 3.358-7.5 7.5s3.357 7.5 7.5 7.5h30.514c4.143 0 7.5-3.358 7.5-7.5s-3.357-7.5-7.5-7.5z"/><path d="m508.513 150.736-223.145-141.409c-5.691-3.606-13.045-3.606-18.734 0l-223.146 141.409c-3.499 2.217-4.538 6.851-2.32 10.35 2.218 3.5 6.853 4.536 10.35 2.32l29.553-18.728v165.863h-42.356c-3.337 0-6.476 1.299-8.84 3.661l-26.215 26.216c-2.36 2.361-3.66 5.5-3.66 8.837v143.622c0 6.893 5.607 12.5 12.5 12.5h73c4.143 0 7.5-3.358 7.5-7.5s-3.357-7.5-7.5-7.5h-70.5v-140.086l24.75-24.75h103.835v164.836h-23.085c-4.143 0-7.5 3.358-7.5 7.5s3.357 7.5 7.5 7.5h25.585c6.893 0 12.5-5.607 12.5-12.5v-17.465h299.846c6.893 0 12.5-5.607 12.5-12.5v-113.584h7.623c5.79 0 10.5-4.71 10.5-10.5v-28.593c0-5.79-4.71-10.5-10.5-10.5h-7.623v-85.742c0-4.142-3.357-7.5-7.5-7.5s-7.5 3.358-7.5 7.5v85.742h-5.971c-5.79 0-10.5 4.71-10.5 10.5v28.593c0 5.79 4.71 10.5 10.5 10.5h5.971v111.084h-35.033v-62.419c0-4.142-3.357-7.5-7.5-7.5s-7.5 3.358-7.5 7.5v62.419h-23.13v-38.004c0-3.718-1.174-7.162-3.159-10 1.985-2.838 3.159-6.282 3.159-10v-32.103h.36c5.79 0 10.5-4.71 10.5-10.5v-31.758c0-5.79-4.71-10.5-10.5-10.5h-.36v-6.147c0-3.718-1.174-7.162-3.159-10 1.985-2.838 3.159-6.282 3.159-10v-35.504c0-9.649-7.851-17.5-17.5-17.5h-178.535c-9.649 0-17.5 7.851-17.5 17.5v35.504c0 3.718 1.174 7.162 3.159 10-1.985 2.838-3.159 6.282-3.159 10v35.504c0 3.718 1.174 7.162 3.159 10-1.985 2.838-3.159 6.282-3.159 10v35.504c0 3.718 1.174 7.162 3.159 10-1.985 2.838-3.159 6.282-3.159 10v38.004h-10.648v-137.371c0-6.886-5.598-12.489-12.482-12.499v-92.318h259.795v13.317h-3.467c-5.79 0-10.5 4.71-10.5 10.5v32.568c0 5.79 4.71 10.5 10.5 10.5h3.467v77.884c0 4.142 3.357 7.5 7.5 7.5s7.5-3.358 7.5-7.5v-77.884h14.101c5.79 0 10.5-4.71 10.5-10.5v-32.568c0-5.79-4.71-10.5-10.5-10.5h-14.101v-15.817c0-6.893-5.607-12.5-12.5-12.5h-264.795c-6.893 0-12.5 5.607-12.5 12.5v94.817h-35.033v-175.369l178.593-113.175c.813-.515 1.863-.515 2.676 0l178.593 113.175v43.821c0 4.142 3.357 7.5 7.5 7.5s7.5-3.358 7.5-7.5v-34.315l29.553 18.728c1.245.79 2.635 1.166 4.008 1.166 2.483 0 4.914-1.233 6.342-3.486 2.217-3.5 1.177-8.133-2.322-10.35zm-54.052 183.592v-19.593h19.594v19.593zm-75.832-1.781v22.758h-22.758v-22.758zm-194.396-76.651c0-1.378 1.121-2.5 2.5-2.5h178.535c1.379 0 2.5 1.122 2.5 2.5v35.504c0 1.378-1.121 2.5-2.5 2.5h-178.535c-1.379 0-2.5-1.122-2.5-2.5zm0 55.504c0-1.378 1.121-2.5 2.5-2.5h178.535c1.379 0 2.5 1.122 2.5 2.5v6.147h-16.397c-5.79 0-10.5 4.71-10.5 10.5v21.357h-154.138c-1.379 0-2.5-1.122-2.5-2.5zm0 55.504c0-1.378 1.121-2.5 2.5-2.5h155.213c1.709 3.488 5.286 5.901 9.425 5.901h16.397v32.103c0 1.378-1.121 2.5-2.5 2.5h-178.535c-1.379 0-2.5-1.122-2.5-2.5zm0 55.504c0-1.378 1.121-2.5 2.5-2.5h178.535c1.379 0 2.5 1.122 2.5 2.5v38.004h-183.535zm222.698-175.867h23.567v23.568h-23.567z"/></g></g></svg>