<svg id="Capa_1" enable-background="new 0 0 512 512" height="512" viewBox="0 0 512 512" width="512" xmlns="http://www.w3.org/2000/svg"><g><g><path d="m504.5 301.5c4.142 0 7.5-3.358 7.5-7.5v-87.648c0-9.649-7.851-17.5-17.5-17.5h-4.876v-83.97c0-5.79-4.71-10.5-10.5-10.5h-9.808v-60.943c0-5.79-4.71-10.5-10.5-10.5h-339.235c-5.79 0-10.5 4.71-10.5 10.5v25.221h-17.813c-5.79 0-10.5 4.71-10.5 10.5v58.541h-4.876c-9.649 0-17.5 7.851-17.5 17.5v51.15 51.951c-17.548 13.612-28.874 34.881-28.874 58.757v22.886h-12.018c-9.649 0-17.5 7.851-17.5 17.5v124.115c0 9.649 7.851 17.5 17.5 17.5h172.732c8.906 0 16.264-6.692 17.348-15.309h286.92c9.649 0 17.5-7.851 17.5-17.5v-127.251c0-4.142-3.358-7.5-7.5-7.5s-7.5 3.358-7.5 7.5v127.252c0 1.378-1.122 2.5-2.5 2.5h-286.768v-111.306c0-9.649-7.851-17.5-17.5-17.5h-12.017v-22.886c0-40.996-33.353-74.348-74.349-74.348-10.857 0-21.167 2.359-30.475 6.559v-35.42h421.109c1.378 0 2.5 1.122 2.5 2.5v87.649c0 4.142 3.358 7.5 7.5 7.5zm-311.768 170.061c0 1.378-1.122 2.5-2.5 2.5h-172.732c-1.378 0-2.5-1.122-2.5-2.5v-24.172h177.732zm-2.5-126.615c1.378 0 2.5 1.122 2.5 2.5v24.172h-31.732c-4.142 0-7.5 3.358-7.5 7.5s3.358 7.5 7.5 7.5h31.732v45.771h-177.732v-45.771h111c4.142 0 7.5-3.358 7.5-7.5s-3.358-7.5-7.5-7.5h-111v-24.172c0-1.378 1.122-2.5 2.5-2.5zm-115.714-15v-22.886c0-16.183 13.166-29.348 29.349-29.348s29.349 13.166 29.349 29.348v22.886zm29.348-82.234c32.725 0 59.349 26.624 59.349 59.348v22.886h-15v-22.886c0-24.454-19.895-44.348-44.349-44.348s-44.349 19.895-44.349 44.348v22.886h-15v-22.886c.001-32.725 26.624-59.348 59.349-59.348zm-8.098-174.052h261.232c4.142 0 7.5-3.358 7.5-7.5s-3.358-7.5-7.5-7.5h-232.919v-20.721h330.234v56.443h-13.313v-25.222c0-5.79-4.71-10.5-10.5-10.5h-38.502c-4.142 0-7.5 3.358-7.5 7.5s3.358 7.5 7.5 7.5h34.003v20.722h-286.114c-5.79 0-10.5 4.71-10.5 10.5v22.819h-33.621zm-22.376 115.192v-43.65c0-1.378 1.122-2.5 2.5-2.5h157.006c.945 0 1.799.523 2.228 1.365l22.811 44.785zm401.232 0h-199.855l-26.278-51.593c-3.002-5.896-8.978-9.558-15.594-9.558h-88.509v-18.319h330.235v79.47z"/><path d="m321.514 151.082h111.748c4.142 0 7.5-3.358 7.5-7.5s-3.358-7.5-7.5-7.5h-111.748c-4.142 0-7.5 3.358-7.5 7.5s3.358 7.5 7.5 7.5z"/><path d="m327 369.912c-6.893 0-12.5 5.607-12.5 12.5v31.905c0 6.893 5.607 12.5 12.5 12.5h125.494c6.893 0 12.5-5.607 12.5-12.5v-31.905c0-6.893-5.607-12.5-12.5-12.5zm122.994 41.905h-120.494v-26.905h120.494z"/></g></g></svg>