<svg id="Capa_1" enable-background="new 0 0 512 512" height="512" viewBox="0 0 512 512" width="512" xmlns="http://www.w3.org/2000/svg"><g><g><path d="m82.833 349.797h18.741c4.143 0 7.5-3.358 7.5-7.5s-3.357-7.5-7.5-7.5h-18.741c-4.143 0-7.5 3.358-7.5 7.5s3.357 7.5 7.5 7.5z"/><path d="m125.898 349.797h46.478c4.143 0 7.5-3.358 7.5-7.5s-3.357-7.5-7.5-7.5h-46.478c-4.143 0-7.5 3.358-7.5 7.5s3.358 7.5 7.5 7.5z"/><path d="m451.233 137.795h-82.391c-24.054-23.192-53.954-38.216-86.276-43.696.177-2.276.273-4.57.273-6.879 0-23.539-9.234-45.602-26.001-62.126-16.764-16.52-38.975-25.423-62.521-25.085-22.479.328-43.754 9.292-59.904 25.241-16.154 15.951-25.382 37.111-25.983 59.583-.619 23.086 8.053 45.435 23.634 62.073-26.235 29.348-40.982 66.632-41.734 106.085-.333 17.5 2.161 34.729 7.17 51.104h-36.734c-6.896 0-12.506 5.61-12.506 12.505v51.395c0 6.895 5.61 12.505 12.506 12.505h86.358c3.029 2.633 6.159 5.169 9.401 7.587 8.357 6.233 13.348 16.055 13.348 26.274v80.129c0 9.655 7.854 17.51 17.51 17.51h115.553c9.655 0 17.51-7.855 17.51-17.51v-11.49c0-4.142-3.357-7.5-7.5-7.5s-7.5 3.358-7.5 7.5v11.49c0 1.384-1.126 2.51-2.51 2.51h-115.552c-1.384 0-2.51-1.126-2.51-2.51v-80.13c0-12.685-5.245-24.915-14.26-33.861h23.829c6.896 0 12.505-5.61 12.505-12.505v-8.611c14.24 6.398 30.012 9.972 46.608 9.972 62.931 0 114.128-51.198 114.128-114.128 0-14.458-2.715-28.289-7.642-41.028h38.172c3.7 12.704 5.728 25.978 5.945 39.552.048 2.942.82 5.83 2.236 8.353l33.489 59.61c.742 1.321 1.135 2.82 1.135 4.335 0 4.881-3.972 8.852-8.853 8.852h-25.214c-9.655 0-17.511 7.855-17.511 17.51v31.978c0 19.84-16.142 35.982-35.981 35.982h-30.504c-9.655 0-17.511 7.855-17.511 17.51v10.119c0 4.142 3.357 7.5 7.5 7.5s7.5-3.358 7.5-7.5v-10.118c0-1.384 1.126-2.51 2.511-2.51h30.504c28.111 0 50.981-22.871 50.981-50.982v-31.978c0-1.384 1.126-2.51 2.511-2.51h25.214c13.152 0 23.853-10.7 23.853-23.852 0-4.083-1.057-8.123-3.057-11.682l-33.488-59.607c-.2-.357-.31-.79-.317-1.25-.215-13.445-2.062-26.616-5.394-39.31h37.47c6.896 0 12.506-5.61 12.506-12.505v-51.396c0-6.895-5.61-12.505-12.506-12.505zm-105.304 0h-28.371c-6.896 0-12.505 5.61-12.505 12.505v3.119c-12.582-6.39-26.495-10.513-41.208-11.836 7.705-9.625 13.239-20.728 16.279-32.651 23.952 4.089 46.464 13.917 65.805 28.863zm-222.506-52.561c.498-18.582 8.144-36.094 21.528-49.311 13.384-13.216 30.993-20.645 49.584-20.916.364-.005.725-.008 1.089-.008 19.1 0 37.063 7.355 50.686 20.779 13.883 13.682 21.529 31.952 21.529 51.442 0 22.354-10.115 43.092-27.753 56.895-6.905 5.404-11.895 12.498-14.427 20.514l-2.929 9.268h-19.613v-33.49c26.083-3.661 46.222-26.11 46.222-53.187 0-6.376-1.11-12.623-3.3-18.565-1.431-3.886-5.738-5.875-9.63-4.445-3.887 1.432-5.877 5.744-4.444 9.63 1.575 4.277 2.374 8.778 2.374 13.379 0 18.785-13.448 34.483-31.222 37.986v-11.385c11.609-3.278 20.144-13.958 20.144-26.601 0-15.243-12.4-27.644-27.644-27.644s-27.644 12.401-27.644 27.644c0 12.643 8.535 23.323 20.144 26.601v11.385c-17.773-3.503-31.221-19.201-31.221-37.986 0-21.351 17.37-38.721 38.721-38.721 5.771 0 11.328 1.243 16.518 3.695 3.744 1.77 8.215.169 9.985-3.576s.168-8.216-3.577-9.985c-7.208-3.407-14.921-5.134-22.926-5.134-29.622 0-53.721 24.099-53.721 53.721 0 27.076 20.138 49.525 46.221 53.187v33.49h-19.612l-2.868-9.077c-2.605-8.245-7.473-15.293-14.074-20.384-18.237-14.06-28.757-36.191-28.14-59.201zm84.629 173.02c-.447 2.152-2.367 3.715-4.565 3.715h-15.441c-2.181 0-4.098-1.547-4.558-3.679l-2.686-12.443h29.828zm-41.579-27.407c-3.715 0-6.737-3.022-6.737-6.738 0-3.715 3.022-6.737 6.737-6.737h58.287c3.715 0 6.737 3.022 6.737 6.737s-3.022 6.738-6.737 6.738zm58.287-28.475h-58.287c-3.715 0-6.737-3.022-6.737-6.737s3.022-6.737 6.737-6.737h58.287c3.715 0 6.737 3.022 6.737 6.737s-3.022 6.737-6.737 6.737zm-29.143-102.508c-6.972 0-12.644-5.672-12.644-12.644s5.672-12.644 12.644-12.644 12.644 5.672 12.644 12.644-5.672 12.644-12.644 12.644zm-90.29 153.413c.682-35.802 14.059-69.645 37.859-96.306 3.763 3.158 6.578 7.404 8.147 12.369l2.685 8.495c-5.607 3.935-9.282 10.444-9.282 17.799 0 4.988 1.707 9.574 4.544 13.246-.889 1.992-1.722 4.015-2.498 6.065-.559 1.193-1.008 2.445-1.343 3.744-3.889 11.478-6.011 23.763-6.011 36.538 0 17.479 3.964 34.045 11.018 48.867h-37.186c-5.495-16.172-8.266-33.346-7.933-50.817zm86.62 112.223h-128.687v-46.404h128.687zm160.736-110.272c0 54.659-44.469 99.128-99.128 99.128-16.842 0-32.705-4.239-46.608-11.681v-26.075c0-6.895-5.609-12.505-12.505-12.505h-27.085c-8.216-14.432-12.93-31.106-12.93-48.867 0-4.248.277-8.432.8-12.541 3.011 1.829 6.491 2.96 10.223 3.133l3.375 15.633c1.939 8.99 10.022 15.515 19.22 15.515h9.573c8.728 22.384 30.503 38.291 55.938 38.291 7.279 0 14.418-1.306 21.216-3.883 3.873-1.468 5.823-5.798 4.355-9.671-1.469-3.874-5.8-5.821-9.672-4.355-5.093 1.93-10.442 2.909-15.899 2.909-17.922 0-33.417-10.529-40.659-25.722 4.926-2.705 8.641-7.461 9.84-13.232l3.219-15.493c11.432-.623 20.542-10.118 20.542-21.703 0-4.661-1.487-8.975-3.995-12.517 3.539-.901 7.237-1.396 11.052-1.396 24.831 0 45.032 20.201 45.032 45.032 0 7.954-2.124 15.788-6.143 22.655-2.093 3.575-.891 8.169 2.685 10.261 3.573 2.091 8.17.89 10.261-2.685 5.363-9.163 8.197-19.617 8.197-30.231 0-33.102-26.931-60.032-60.032-60.032-2.388 0-4.742.146-7.058.421-.006-7.347-3.679-13.849-9.281-17.781l2.745-8.687c1.574-4.983 4.697-9.439 9.023-12.931 1.515-.072 3.037-.118 4.571-.118 18.85 0 36.477 5.305 51.497 14.477v31.118c0 6.895 5.609 12.505 12.505 12.505h26.215c5.714 12.51 8.911 26.4 8.911 41.028zm96.056-56.028h-128.687v-46.404h128.687z"/><path d="m339.624 183.498h18.741c4.143 0 7.5-3.358 7.5-7.5s-3.357-7.5-7.5-7.5h-18.741c-4.143 0-7.5 3.358-7.5 7.5s3.357 7.5 7.5 7.5z"/><path d="m382.689 183.498h46.478c4.143 0 7.5-3.358 7.5-7.5s-3.357-7.5-7.5-7.5h-46.478c-4.143 0-7.5 3.358-7.5 7.5s3.358 7.5 7.5 7.5z"/></g></g></svg>