<svg id="Capa_1" enable-background="new 0 0 512 512" height="512" viewBox="0 0 512 512" width="512" xmlns="http://www.w3.org/2000/svg"><g><g><path d="m467.398 259.801v-108.61h10.761c3.965 0 7.548-2.194 9.352-5.725 1.803-3.531 1.479-7.719-.844-10.928l-34.757-48.064c-1.958-2.708-5.123-4.334-8.465-4.348-.015 0-.029 0-.044 0-3.326 0-6.485 1.597-8.458 4.278l-35.361 48.064c-2.361 3.208-2.711 7.408-.914 10.961 1.797 3.554 5.388 5.762 9.37 5.762h11.408v27.809c0 4.142 3.357 7.5 7.5 7.5s7.5-3.358 7.5-7.5v-32.309c0-5.79-4.71-10.5-10.5-10.5h-7.011l26.434-35.93 25.982 35.93h-6.453c-5.79 0-10.5 4.71-10.5 10.5v102.938c-5.705-3.259-11.705-6.058-17.952-8.34v-27.289c0-4.142-3.357-7.5-7.5-7.5s-7.5 3.358-7.5 7.5v22.927c-8.17-1.798-16.652-2.754-25.354-2.754-1.719 0-3.427.047-5.129.12v-163.39c0-9.649-7.851-17.5-17.5-17.5h-28.963v-3.893c0-4.142-3.357-7.5-7.5-7.5s-7.5 3.358-7.5 7.5v3.893h-25.148v-3.893c0-4.142-3.357-7.5-7.5-7.5s-7.5 3.358-7.5 7.5v3.893h-25.148v-3.893c0-4.142-3.357-7.5-7.5-7.5s-7.5 3.358-7.5 7.5v3.893h-25.147v-3.893c0-4.142-3.357-7.5-7.5-7.5s-7.5 3.358-7.5 7.5v3.893h-25.148v-3.893c0-4.142-3.357-7.5-7.5-7.5s-7.5 3.358-7.5 7.5v3.893h-25.148v-3.893c0-4.142-3.357-7.5-7.5-7.5s-7.5 3.358-7.5 7.5v3.893h-25.151v-3.893c0-4.142-3.357-7.5-7.5-7.5s-7.5 3.358-7.5 7.5v3.893h-25.147v-3.893c0-4.142-3.357-7.5-7.5-7.5s-7.5 3.358-7.5 7.5v3.893h-28.963c-9.649 0-17.5 7.851-17.5 17.5v347.349c0 9.649 7.851 17.5 17.5 17.5h293.602c21.323 21.15 50.655 34.237 82.99 34.237 25.145 0 49.147-7.814 69.414-22.598 3.347-2.441 4.08-7.133 1.64-10.479-2.442-3.347-7.135-4.081-10.479-1.639-17.683 12.898-38.629 19.716-60.574 19.716-56.744 0-102.908-46.165-102.908-102.908s46.164-102.908 102.908-102.908 102.907 46.164 102.907 102.908c0 21.712-6.684 42.475-19.329 60.044-2.42 3.362-1.656 8.049 1.705 10.469 3.363 2.42 8.05 1.657 10.469-1.706 14.494-20.137 22.155-43.93 22.155-68.807 0-37.331-17.443-70.66-44.602-92.28zm-452.398 158.451v-292.27h63c4.143 0 7.5-3.358 7.5-7.5s-3.357-7.5-7.5-7.5h-63v-40.079c0-1.378 1.121-2.5 2.5-2.5h28.963v12.682c0 4.142 3.357 7.5 7.5 7.5s7.5-3.358 7.5-7.5v-12.682h25.147v12.682c0 4.142 3.357 7.5 7.5 7.5s7.5-3.358 7.5-7.5v-12.682h25.148v12.682c0 4.142 3.357 7.5 7.5 7.5s7.5-3.358 7.5-7.5v-12.682h25.148v12.682c0 4.142 3.357 7.5 7.5 7.5s7.5-3.358 7.5-7.5v-12.682h25.148v12.682c0 4.142 3.357 7.5 7.5 7.5s7.5-3.358 7.5-7.5v-12.682h25.147v12.682c0 4.142 3.357 7.5 7.5 7.5s7.5-3.358 7.5-7.5v-12.682h25.148v12.682c0 4.142 3.357 7.5 7.5 7.5s7.5-3.358 7.5-7.5v-12.682h25.151v12.682c0 4.142 3.357 7.5 7.5 7.5s7.5-3.358 7.5-7.5v-12.682h28.963c1.379 0 2.5 1.122 2.5 2.5v40.079h-260.963c-4.143 0-7.5 3.358-7.5 7.5s3.357 7.5 7.5 7.5h260.963v109.933c-5.005.865-9.91 2.028-14.68 3.504v-85.764c0-7.165-5.829-12.994-12.994-12.994h-303.616c-7.164 0-12.993 5.829-12.993 12.994v171.839c0 7.165 5.829 12.993 12.993 12.993h234.299c-.515 4.462-.788 8.996-.788 13.594 0 5.95.448 11.797 1.302 17.513h-14.089c-2.96-9.321-11.693-16.094-21.98-16.094s-19.021 6.774-21.98 16.094h-49.909c-2.96-9.321-11.693-16.094-21.98-16.094s-19.021 6.774-21.98 16.094h-50.85c-2.96-9.321-11.693-16.094-21.98-16.094-12.714 0-23.058 10.344-23.058 23.058s10.344 23.058 23.058 23.058c9.888 0 18.341-6.258 21.61-15.021h51.588c3.27 8.763 11.722 15.021 21.61 15.021s18.341-6.258 21.61-15.021h50.65c3.27 8.763 11.722 15.021 21.61 15.021s18.341-6.258 21.61-15.021h17.719c3.772 13.131 9.771 25.328 17.558 36.158h-280.803c-1.379-.001-2.5-1.122-2.5-2.501zm289.228-186.178v-32.487h40.056v32.487zm-117.247 0h-36.123v-32.487h36.123zm15-32.487h36.123v32.487h-36.123zm-66.123 32.487h-36.123v-32.487h36.123zm-51.123 0h-40.055v-32.487h40.056v32.487zm-40.055 15h40.056v32.487h-40.056zm55.055 0h36.123v32.487h-36.123zm51.123 0h36.123v32.487h-36.123zm51.123 0h36.123v32.487h-36.123zm51.123 0h36.123v32.487h-36.123zm0-15v-32.487h36.123v32.487zm91.179-47.487h-40.056v-28.926h40.056zm-55.055 0h-36.123v-28.926h36.123zm-51.124 0h-36.123v-28.926h36.123zm-51.123 0h-36.123v-28.926h36.123zm-51.123 0h-36.123v-28.926h36.123zm-51.123 0h-40.055v-28.926h40.056v28.926zm-40.055 109.975h40.056v28.926h-40.056zm55.055 0h36.123v28.926h-36.123zm51.123 0h36.123v28.926h-36.123zm51.123 0h36.123v28.926h-36.123zm51.123 0h36.123v3.674c-4.093 7.939-7.316 16.397-9.531 25.252h-26.593v-28.926zm51.124-18.705v-28.783h36.305c-13.93 7.134-26.26 16.958-36.305 28.783zm-54.754 100.701c0 4.443-3.614 8.058-8.058 8.058s-8.058-3.615-8.058-8.058 3.614-8.058 8.058-8.058 8.058 3.615 8.058 8.058zm-93.87 0c0 4.443-3.614 8.058-8.058 8.058s-8.058-3.615-8.058-8.058 3.614-8.058 8.058-8.058 8.058 3.615 8.058 8.058zm-94.809 0c0 4.443-3.614 8.058-8.058 8.058s-8.057-3.616-8.057-8.058 3.614-8.058 8.058-8.058 8.057 3.615 8.057 8.058z"/><path d="m394.092 264.673c-48.197 0-87.408 39.211-87.408 87.408s39.211 87.408 87.408 87.408 87.408-39.211 87.408-87.408-39.211-87.408-87.408-87.408zm0 159.816c-39.926 0-72.408-32.482-72.408-72.408s32.482-72.408 72.408-72.408 72.408 32.482 72.408 72.408-32.482 72.408-72.408 72.408z"/><path d="m437 344.581h-35.408v-46.82c0-4.142-3.357-7.5-7.5-7.5s-7.5 3.358-7.5 7.5v54.32c0 4.142 3.357 7.5 7.5 7.5h42.908c4.143 0 7.5-3.358 7.5-7.5s-3.357-7.5-7.5-7.5z"/></g></g></svg>