<svg id="Capa_1" enable-background="new 0 0 512 512" height="512" viewBox="0 0 512 512" width="512" xmlns="http://www.w3.org/2000/svg"><g><g><path d="m490.665 230.5c4.143 0 7.5-3.358 7.5-7.5v-205.5c0-9.649-7.851-17.5-17.5-17.5h-251.605c-9.649 0-17.5 7.851-17.5 17.5v241.15c-11.99-3.676-24.714-5.66-37.893-5.66-7.051 0-13.969.578-20.717 1.67-10.562-26.707-36.621-45.658-67.039-45.658-39.743 0-72.076 32.333-72.076 72.076 0 26.73 14.637 50.09 36.306 62.534-3.876 12.28-5.979 25.339-5.979 38.883 0 71.41 58.096 129.505 129.506 129.505 48.954 0 91.648-27.306 113.66-67.484h198.498c6.805 0 12.34-5.536 12.34-12.34v-174.176c0-4.142-3.357-7.5-7.5-7.5s-7.5 3.358-7.5 7.5v171.516h-188.832c4.836-12.368 7.82-25.656 8.615-39.521h19.562l16.349 23.958c1.957 2.871 5.2 4.584 8.676 4.584h59.102c3.95 0 7.528-2.182 9.336-5.694 1.808-3.513 1.505-7.691-.79-10.905l-8.524-11.943h.361c4.143 0 7.5-3.358 7.5-7.5s-3.357-7.5-7.5-7.5h-.361l8.523-11.941c2.296-3.215 2.599-7.394.791-10.907-1.808-3.512-5.386-5.694-9.336-5.694h-59.102c-3.475 0-6.717 1.713-8.674 4.581l-16.351 23.961h-19.562c-.794-13.834-3.766-27.092-8.583-39.437h4.86c5.79 0 10.5-4.71 10.5-10.5v-31.898c0-5.79-4.71-10.5-10.5-10.5h-31.898c-2.957 0-5.628 1.233-7.538 3.207-9.849-8.787-21.04-16.098-33.23-21.574v-200.867h256.605v159.574c0 4.142 3.357 7.5 7.5 7.5zm-140.752 173.037-9.241-13.542h47.56l9.665 13.542zm-.001-42.085h47.984l-9.665 13.542h-47.56zm-321.077-80.374c0-31.472 25.604-57.076 57.076-57.076s57.076 25.604 57.076 57.076-25.604 57.076-57.076 57.076-57.076-25.605-57.076-57.076zm144.832 215.922c-63.139 0-114.506-51.367-114.506-114.505 0-11.386 1.674-22.388 4.784-32.775 6.93 2.223 14.308 3.434 21.966 3.434.943 0 1.878-.035 2.813-.071-3.202 9.221-4.951 19.115-4.951 29.412 0 49.567 40.326 89.893 89.894 89.893 17.499 0 34.49-5.073 49.138-14.671 3.465-2.27 4.433-6.919 2.163-10.384-2.271-3.464-6.918-4.432-10.384-2.162-12.198 7.993-26.347 12.217-40.917 12.217-41.297 0-74.894-33.597-74.894-74.893 0-11.538 2.636-22.468 7.319-32.237 20.193-5.901 36.735-20.412 45.375-39.282 7.018-2.187 14.471-3.375 22.199-3.375 38.765 0 70.742 29.606 74.516 67.394h-24.797c-3.632-24.18-24.543-42.781-49.72-42.781-27.726 0-50.281 22.556-50.281 50.281s22.556 50.281 50.281 50.281c25.177 0 46.088-18.601 49.72-42.781h24.79c-1.162 11.528-4.987 22.639-11.246 32.5-2.22 3.497-1.185 8.132 2.313 10.352s8.131 1.185 10.352-2.313c7.789-12.27 12.434-26.155 13.639-40.539h24.687c-3.877 59.655-53.635 107.005-114.253 107.005zm0-107.005h34.471c-3.449 15.862-17.591 27.781-34.471 27.781-19.454 0-35.281-15.827-35.281-35.281s15.827-35.281 35.281-35.281c16.88 0 31.022 11.919 34.471 27.781h-34.471c-4.143 0-7.5 3.358-7.5 7.5s3.357 7.5 7.5 7.5zm98.16-92.336h22.898v22.898h-7.352c-4.394-8.034-9.615-15.553-15.547-22.444v-.454zm16.093 77.336h-24.676c-3.824-46.071-42.536-82.394-89.577-82.394-5.777 0-11.424.561-16.9 1.609.788-4.261 1.221-8.646 1.221-13.132 0-4.041-.351-8-.993-11.862 5.445-.8 11.009-1.227 16.673-1.227 60.617 0 110.375 47.35 114.252 107.006zm-16.355-326.569h-45.005v-30.926c0-1.378 1.121-2.5 2.5-2.5h42.506v33.426zm15 0v-33.426h194.1c1.379 0 2.5 1.122 2.5 2.5v30.926z"/><path d="m445.397 87.114h-116.853c-4.143 0-7.5 3.358-7.5 7.5s3.357 7.5 7.5 7.5h116.854c4.143 0 7.5-3.358 7.5-7.5s-3.358-7.5-7.501-7.5z"/><path d="m328.544 128.432h69.207c4.143 0 7.5-3.358 7.5-7.5s-3.357-7.5-7.5-7.5h-69.207c-4.143 0-7.5 3.358-7.5 7.5s3.357 7.5 7.5 7.5z"/><path d="m445.397 154.226h-116.853c-4.143 0-7.5 3.358-7.5 7.5s3.357 7.5 7.5 7.5h116.854c4.143 0 7.5-3.358 7.5-7.5s-3.358-7.5-7.501-7.5z"/><path d="m328.544 195.544h69.207c4.143 0 7.5-3.358 7.5-7.5s-3.357-7.5-7.5-7.5h-69.207c-4.143 0-7.5 3.358-7.5 7.5s3.357 7.5 7.5 7.5z"/><path d="m445.397 221.337h-116.853c-4.143 0-7.5 3.358-7.5 7.5s3.357 7.5 7.5 7.5h116.854c4.143 0 7.5-3.358 7.5-7.5s-3.358-7.5-7.501-7.5z"/><path d="m328.544 262.656h69.207c4.143 0 7.5-3.358 7.5-7.5s-3.357-7.5-7.5-7.5h-69.207c-4.143 0-7.5 3.358-7.5 7.5s3.357 7.5 7.5 7.5z"/><path d="m309.726 91.824c0-5.79-4.71-10.5-10.5-10.5h-31.898c-5.79 0-10.5 4.71-10.5 10.5v31.898c0 5.79 4.71 10.5 10.5 10.5h31.898c5.79 0 10.5-4.71 10.5-10.5zm-15 27.398h-22.898v-22.898h22.898z"/><path d="m309.726 158.936c0-5.79-4.71-10.5-10.5-10.5h-31.898c-5.79 0-10.5 4.71-10.5 10.5v31.898c0 5.79 4.71 10.5 10.5 10.5h31.898c5.79 0 10.5-4.71 10.5-10.5zm-15 27.398h-22.898v-22.898h22.898z"/><path d="m299.226 215.547h-31.898c-5.79 0-10.5 4.71-10.5 10.5v31.898c0 5.79 4.71 10.5 10.5 10.5h31.898c5.79 0 10.5-4.71 10.5-10.5v-31.898c0-5.789-4.71-10.5-10.5-10.5zm-4.5 37.899h-22.898v-22.898h22.898z"/><path d="m452.897 295.949c0-4.142-3.357-7.5-7.5-7.5h-116.853c-4.143 0-7.5 3.358-7.5 7.5s3.357 7.5 7.5 7.5h116.854c4.142 0 7.499-3.358 7.499-7.5z"/><path d="m328.544 314.768c-4.143 0-7.5 3.358-7.5 7.5s3.357 7.5 7.5 7.5h69.207c4.143 0 7.5-3.358 7.5-7.5s-3.357-7.5-7.5-7.5z"/><path d="m93.411 319.081v-5.417c10.799-.301 19.497-9.159 19.497-20.029 0-11.06-8.998-20.058-20.058-20.058h-13.878c-2.789 0-5.058-2.269-5.058-5.058s2.269-5.058 5.058-5.058h24.454c4.143 0 7.5-3.358 7.5-7.5s-3.357-7.5-7.5-7.5h-10.015v-5.388c0-4.142-3.357-7.5-7.5-7.5s-7.5 3.358-7.5 7.5v5.416c-10.799.301-19.497 9.159-19.497 20.029 0 11.06 8.998 20.058 20.058 20.058h13.879c2.789 0 5.058 2.269 5.058 5.058s-2.269 5.058-5.058 5.058h-24.455c-4.143 0-7.5 3.358-7.5 7.5s3.357 7.5 7.5 7.5h10.015v5.388c0 4.142 3.357 7.5 7.5 7.5s7.5-3.357 7.5-7.499z"/><path d="m80.507 198h105.962c6.069 0 11.008-4.938 11.008-11.007v-50.993c0-4.142-3.357-7.5-7.5-7.5s-7.5 3.358-7.5 7.5v47h-97.977v-107.962l18.537-18.538h79.439v44.5c0 4.142 3.357 7.5 7.5 7.5s7.5-3.358 7.5-7.5v-48.493c0-6.069-4.938-11.007-11.008-11.007h-85.085c-2.938 0-5.702 1.144-7.784 3.224l-20.873 20.875c-2.08 2.079-3.226 4.843-3.226 7.785v113.609c0 6.069 4.938 11.007 11.007 11.007z"/><path d="m157.142 74.185h-47.307c-4.143 0-7.5 3.358-7.5 7.5s3.357 7.5 7.5 7.5h47.307c4.143 0 7.5-3.358 7.5-7.5s-3.358-7.5-7.5-7.5z"/><path d="m157.142 99.448h-47.307c-4.143 0-7.5 3.358-7.5 7.5s3.357 7.5 7.5 7.5h47.307c4.143 0 7.5-3.358 7.5-7.5s-3.358-7.5-7.5-7.5z"/><path d="m164.642 132.438c0-4.142-3.357-7.5-7.5-7.5h-47.307c-4.143 0-7.5 3.358-7.5 7.5s3.357 7.5 7.5 7.5h47.307c4.142 0 7.5-3.357 7.5-7.5z"/><path d="m109.835 150.315c-4.143 0-7.5 3.358-7.5 7.5s3.357 7.5 7.5 7.5h21.206c4.143 0 7.5-3.358 7.5-7.5s-3.357-7.5-7.5-7.5z"/></g></g></svg>