<svg id="Capa_1" enable-background="new 0 0 512 512" height="512" viewBox="0 0 512 512" width="512" xmlns="http://www.w3.org/2000/svg"><g><g><path d="m490.023 266.659c4.142 0 7.5-3.357 7.5-7.5v-246.659c0-6.893-5.607-12.5-12.5-12.5h-355.847c-6.893 0-12.5 5.607-12.5 12.5v226.645h-27.014c-6.327 0-11.992 3.271-15.156 8.75-3.163 5.479-3.163 12.021 0 17.5l14.926 25.852c-8.53 1.163-15.131 8.476-15.131 17.32v14.514c0 3.478 1.032 6.714 2.789 9.442-11.889 5.824-22.692 13.381-31.877 22.444-19.82 19.557-30.735 44.74-30.735 70.91 0 31.601 15.858 61.417 43.506 81.805 3.776 2.784 8.486 4.318 13.262 4.318h57.931 46.169 309.678c6.893 0 12.5-5.607 12.5-12.5v-205.341c0-4.143-3.358-7.5-7.5-7.5s-7.5 3.357-7.5 7.5v202.841h-286.097c15.601-15.28 25.867-34.151 29.489-54.698.719-4.079-2.005-7.969-6.084-8.688-4.077-.721-7.969 2.006-8.688 6.084-3.97 22.52-17.478 42.791-38.127 57.302h-101.772c-1.595 0-3.143-.494-4.359-1.391-23.774-17.53-37.41-42.947-37.41-69.732 0-22.126 9.33-43.517 26.271-60.232 11.256-11.106 25.329-19.644 40.954-25.063h48.513c32.929 11.423 57.838 36.405 65.038 67.13.945 4.033 4.977 6.54 9.014 5.591 4.033-.944 6.536-4.98 5.591-9.013-7.26-30.979-29.72-56.878-60.109-71.773 1.754-2.726 2.785-5.96 2.785-9.435v-14.514c0-8.844-6.601-16.158-15.131-17.32l14.926-25.852c3.164-5.479 3.164-12.021 0-17.5s-8.829-8.75-15.156-8.75h-20.495v-224.146h350.847v244.159c-.001 4.143 3.357 7.5 7.499 7.5zm-337.491 41.908v14.514c0 1.379-1.122 2.5-2.5 2.5h-58.231c-1.378 0-2.5-1.121-2.5-2.5v-14.514c0-1.379 1.122-2.5 2.5-2.5h58.231c1.379 0 2.5 1.121 2.5 2.5zm-.361-54.422c1.256 0 1.896.783 2.165 1.25s.628 1.412 0 2.5l-19.152 33.173h-28.536l-19.152-33.173c-.627-1.087-.269-2.033 0-2.5s.909-1.25 2.165-1.25z"/><path d="m120.917 470.131c4.142 0 7.5-3.357 7.5-7.5v-8.47h1.099c12.716 0 23.061-10.345 23.061-23.061s-10.345-23.061-23.061-23.061h-17.198c-4.445 0-8.061-3.616-8.061-8.061s3.616-8.061 8.061-8.061h30.302c4.142 0 7.5-3.357 7.5-7.5s-3.358-7.5-7.5-7.5h-14.203v-8.47c0-4.143-3.358-7.5-7.5-7.5s-7.5 3.357-7.5 7.5v8.47h-1.099c-12.716 0-23.061 10.345-23.061 23.061s10.345 23.061 23.061 23.061h17.198c4.445 0 8.061 3.616 8.061 8.061s-3.616 8.061-8.061 8.061h-30.302c-4.142 0-7.5 3.357-7.5 7.5s3.358 7.5 7.5 7.5h14.203v8.47c0 4.142 3.357 7.5 7.5 7.5z"/><path d="m460.018 215.588v-72.794c0-5.79-4.71-10.5-10.5-10.5h-19c-5.79 0-10.5 4.71-10.5 10.5v68.294h-13.167v-98.498c0-5.79-4.71-10.5-10.5-10.5h-19c-5.79 0-10.5 4.71-10.5 10.5v98.498h-13.167v-124.657c0-5.79-4.71-10.5-10.5-10.5h-19c-5.79 0-10.5 4.71-10.5 10.5v124.657h-13.167v-41.088c0-4.143-3.358-7.5-7.5-7.5s-7.5 3.357-7.5 7.5v41.088h-10v-98.358h10v22.27c0 4.143 3.358 7.5 7.5 7.5s7.5-3.357 7.5-7.5v-26.77c0-5.79-4.71-10.5-10.5-10.5h-19c-5.79 0-10.5 4.71-10.5 10.5v102.857h-13.167v-78.151c0-5.79-4.71-10.5-10.5-10.5h-19c-5.79 0-10.5 4.71-10.5 10.5v78.151h-13.167v-52.901c0-5.79-4.71-10.5-10.5-10.5h-19c-5.79 0-10.5 4.71-10.5 10.5v57.401c0 5.79 4.71 10.5 10.5 10.5h284.836c5.789.001 10.499-4.709 10.499-10.499zm-280.836-4.5h-1.893-8.107v-48.401h10zm53.167 0h-10v-73.651h10zm106.335 0h-10v-120.157h10zm53.167 0h-10v-93.998h10zm53.167 0h-7.724-2.276v-63.794h10z"/><path d="m447.351 313.928h-3.685c-3.704-29.515-28.939-52.428-59.442-52.428-13.838 0-26.585 4.728-36.741 12.635l-2.626-2.623c-1.406-1.404-3.313-2.193-5.3-2.193-.001 0-.003 0-.005 0-1.989.001-3.896.793-5.302 2.2-13.126 13.143-20.654 31.334-20.654 49.908 0 38.944 31.683 70.628 70.627 70.628s70.627-31.684 70.627-70.628c.001-4.142-3.357-7.499-7.499-7.499zm-63.127-37.428c22.217 0 40.708 16.214 44.29 37.428h-41.187l-29.126-29.089c7.349-5.242 16.328-8.339 26.023-8.339zm0 100.556c-30.673 0-55.627-24.955-55.627-55.628 0-12.114 4.066-24.021 11.334-33.636l38.993 38.942c1.406 1.404 3.313 2.193 5.3 2.193h55.124c-3.673 27.141-26.994 48.129-55.124 48.129z"/><path d="m210.652 285.786h83.984c4.142 0 7.5-3.357 7.5-7.5s-3.358-7.5-7.5-7.5h-83.984c-4.142 0-7.5 3.357-7.5 7.5s3.358 7.5 7.5 7.5z"/><path d="m210.652 314.547h83.984c4.142 0 7.5-3.357 7.5-7.5s-3.358-7.5-7.5-7.5h-83.984c-4.142 0-7.5 3.357-7.5 7.5s3.358 7.5 7.5 7.5z"/><path d="m222.157 343.309h72.479c4.142 0 7.5-3.357 7.5-7.5s-3.358-7.5-7.5-7.5h-72.479c-4.142 0-7.5 3.357-7.5 7.5s3.358 7.5 7.5 7.5z"/><path d="m245.167 372.07h49.47c4.142 0 7.5-3.357 7.5-7.5s-3.358-7.5-7.5-7.5h-49.47c-4.142 0-7.5 3.357-7.5 7.5s3.357 7.5 7.5 7.5z"/><path d="m246.317 51.814c4.142 0 7.5-3.357 7.5-7.5s-3.358-7.5-7.5-7.5h-84.219c-4.142 0-7.5 3.357-7.5 7.5s3.358 7.5 7.5 7.5z"/><path d="m405.848 51.814h46.254c4.142 0 7.5-3.357 7.5-7.5s-3.358-7.5-7.5-7.5h-46.254c-4.142 0-7.5 3.357-7.5 7.5s3.358 7.5 7.5 7.5z"/><path d="m405.848 78.275h46.254c4.142 0 7.5-3.357 7.5-7.5s-3.358-7.5-7.5-7.5h-46.254c-4.142 0-7.5 3.357-7.5 7.5s3.358 7.5 7.5 7.5z"/><path d="m268.914 463.948h162.772c12.773 0 23.165-10.392 23.165-23.165s-10.392-23.165-23.165-23.165h-162.772c-12.773 0-23.165 10.392-23.165 23.165s10.392 23.165 23.165 23.165zm124.109-31.33h38.664c4.502 0 8.165 3.663 8.165 8.165s-3.663 8.165-8.165 8.165h-38.664zm-124.109 0h109.109v16.33h-109.109c-4.502 0-8.165-3.663-8.165-8.165s3.663-8.165 8.165-8.165z"/></g></g></svg>