<svg id="Capa_1" enable-background="new 0 0 512 512" height="512" viewBox="0 0 512 512" width="512" xmlns="http://www.w3.org/2000/svg"><g><g><path d="m507.823 231.157-65.269-48.02c-3.131-2.304-7.232-2.647-10.702-.891-3.47 1.754-5.625 5.26-5.625 9.147v19.213h-45.66c-5.112-27.529-18.534-52.795-38.97-72.763-22.448-21.934-51.104-35.243-81.914-38.328-8.042-28.906-34.582-50.188-66.016-50.188-19.626 0-37.808 8.129-50.785 22.508-7.289-3.215-15.206-4.895-23.222-4.895-19.741 0-37.178 9.998-47.549 25.189-6.598-3.185-13.993-4.97-21.797-4.97-27.743.002-50.314 22.574-50.314 50.317 0 12.638 4.694 24.194 12.417 33.041-.922 3.722-1.429 7.606-1.429 11.61 0 26.768 21.777 48.545 48.545 48.545h49.261c-.032.859-.08 1.716-.096 2.577-.445 23.386 5.142 46.203 15.759 66.417h-38.684v-18.353c0-3.869-2.141-7.367-5.586-9.128-3.445-1.762-7.534-1.448-10.673.821l-65.269 47.198c-2.645 1.912-4.231 5.001-4.245 8.265-.013 3.263 1.548 6.366 4.176 8.3l65.271 48.021c1.802 1.326 3.926 2.001 6.064 2.001 1.578 0 3.165-.367 4.637-1.112 3.469-1.755 5.624-5.26 5.624-9.147v-19.213h19.228c4.142 0 7.5-3.357 7.5-7.5s-3.358-7.5-7.5-7.5h-23.976c-5.653 0-10.252 4.599-10.252 10.252v14.573l-52.463-38.6 52.463-37.938v13.807c0 5.653 4.599 10.252 10.252 10.252h52.588c7.195 10.269 15.824 19.596 25.723 27.653h-19.335c-4.142 0-7.5 3.357-7.5 7.5s3.358 7.5 7.5 7.5h32.62c1.148 2.923 1.771 6.046 1.771 9.221v39.132h-9.391c-9.649 0-17.5 7.851-17.5 17.5v22c0 9.649 7.851 17.5 17.5 17.5h94c4.142 0 7.5-3.357 7.5-7.5s-3.358-7.5-7.5-7.5h-94c-1.378 0-2.5-1.121-2.5-2.5v-22c0-1.379 1.122-2.5 2.5-2.5h154c1.378 0 2.5 1.121 2.5 2.5v22c0 1.379-1.122 2.5-2.5 2.5h-25c-4.142 0-7.5 3.357-7.5 7.5s3.358 7.5 7.5 7.5h25c9.649 0 17.5-7.851 17.5-17.5v-22c0-9.649-7.851-17.5-17.5-17.5h-17.646v-19.707c0-.423.344-.767.767-.767h25.192c23.936 0 43.41-19.474 43.41-43.41v-26.408c0-.423.344-.767.767-.767h20.823c11.582 0 21.004-9.423 21.004-21.005 0-3.596-.931-7.153-2.692-10.288l-8.46-15.059h24.063v18.353c0 3.869 2.141 7.367 5.586 9.128 1.481.757 3.08 1.131 4.672 1.131 2.112 0 4.211-.658 6.001-1.952l65.269-47.198c2.645-1.912 4.231-5.001 4.245-8.265.012-3.263-1.549-6.366-4.178-8.3zm-492.823-93.681c0-19.473 15.842-35.314 35.315-35.314s35.315 15.842 35.315 35.314-15.842 35.315-35.315 35.315-35.315-15.843-35.315-35.315zm377.312 162.136h-20.823c-8.694 0-15.767 7.073-15.767 15.767v26.408c0 15.665-12.745 28.41-28.41 28.41h-25.192c-8.694 0-15.767 7.073-15.767 15.767v19.707h-96.963v-39.132c0-12.741-6.18-24.956-16.531-32.675-31.533-23.518-49.913-61.024-49.164-100.331.018-.956.051-1.91.092-2.862h76.213c4.142 0 7.5-3.357 7.5-7.5s-3.358-7.5-7.5-7.5h-140.466c-18.497 0-33.545-15.048-33.545-33.545 0-.206.017-.409.02-.614 7.21 3.996 15.495 6.279 24.306 6.279 27.744 0 50.315-22.571 50.315-50.315 0-14.561-6.224-27.691-16.145-36.887 7.666-11.245 20.569-18.646 35.175-18.646 7.521 0 14.921 1.998 21.402 5.779 3.288 1.918 7.49 1.07 9.776-1.975 10.225-13.611 25.835-21.418 42.83-21.418 29.516 0 53.528 24.013 53.528 53.528 0 7.036-1.353 13.889-4.021 20.366-.953 2.313-.689 4.95.703 7.029s3.729 3.327 6.232 3.327h14.652c18.497 0 33.545 15.049 33.545 33.546s-15.048 33.545-33.545 33.545h-29.762c-4.142 0-7.5 3.357-7.5 7.5s3.358 7.5 7.5 7.5h29.761c26.768 0 48.545-21.777 48.545-48.545 0-26.769-21.777-48.546-48.545-48.546h-4.383c1.209-5.126 1.818-10.383 1.818-15.723 0-.994-.033-1.98-.075-2.964 25.932 3.45 49.969 15.09 68.994 33.68 23.187 22.656 36.242 52.966 36.761 85.348.043 2.646.739 5.244 2.015 7.518l27.657 49.229c.503.896.77 1.913.77 2.94-.002 3.312-2.695 6.005-6.006 6.005zm48.916-22.293v-13.807c0-5.653-4.599-10.252-10.251-10.252h-37.239l-10.768-19.167c-.059-.104-.093-.252-.096-.414-.043-2.705-.174-5.395-.372-8.072h48.475c5.653 0 10.251-4.599 10.251-10.252v-14.572l52.463 38.599z"/><path d="m74.969 132.816c2.929-2.93 2.929-7.678 0-10.607-2.929-2.928-7.678-2.928-10.606 0l-16.768 16.769-11.328-11.329c-2.928-2.927-7.677-2.929-10.606 0-2.929 2.93-2.929 7.678 0 10.607l16.631 16.632c1.406 1.406 3.314 2.196 5.303 2.196s3.897-.79 5.303-2.196z"/><path d="m217.873 120.903h-99.181c-4.142 0-7.5 3.357-7.5 7.5s3.358 7.5 7.5 7.5h99.181c4.142 0 7.5-3.357 7.5-7.5 0-4.142-3.358-7.5-7.5-7.5z"/><path d="m217.873 147.487h-99.181c-4.142 0-7.5 3.357-7.5 7.5s3.358 7.5 7.5 7.5h99.181c4.142 0 7.5-3.357 7.5-7.5s-3.358-7.5-7.5-7.5z"/><path d="m193.878 174.072h-75.186c-4.142 0-7.5 3.357-7.5 7.5s3.358 7.5 7.5 7.5h75.186c4.142 0 7.5-3.357 7.5-7.5s-3.358-7.5-7.5-7.5z"/></g></g></svg>