<svg id="Capa_1" enable-background="new 0 0 512 512" height="512" viewBox="0 0 512 512" width="512" xmlns="http://www.w3.org/2000/svg"><g><g><path d="m452.369 221.649c0-10.233-8.325-18.559-18.559-18.559h-23.773v-122.5h16.459c3.794 0 7.224-2.099 8.95-5.478s1.417-7.388-.807-10.462l-43.744-60.492c-1.876-2.592-4.905-4.146-8.104-4.158-3.159.007-6.239 1.52-8.134 4.095l-44.503 60.488c-2.26 3.07-2.595 7.091-.875 10.492 1.72 3.402 5.156 5.516 8.969 5.516h17.257v122.5h-38.914c-10.233 0-18.559 8.325-18.559 18.559v17.22c0 4.146 1.383 7.966 3.69 11.059-2.306 3.093-3.69 6.913-3.69 11.059v17.219c0 4.146 1.383 7.966 3.69 11.059-2.306 3.093-3.69 6.913-3.69 11.059v17.22c0 1.219.133 2.406.361 3.559h-14.73v-162.117h16.459c3.794 0 7.224-2.099 8.95-5.478s1.417-7.388-.807-10.462l-43.742-60.49c-1.874-2.593-4.903-4.148-8.103-4.161-.014 0-.027 0-.041 0-3.184 0-6.208 1.528-8.096 4.095l-44.503 60.488c-2.26 3.07-2.595 7.091-.875 10.492 1.72 3.402 5.157 5.516 8.969 5.516h17.256v162.113h-33.455c-10.233 0-18.559 8.325-18.559 18.558v10.124c-6.263-2.669-12.903-4.622-19.829-5.711v-101.284h16.459c3.794 0 7.223-2.099 8.949-5.477 1.727-3.379 1.418-7.388-.805-10.463l-43.741-60.487c-1.874-2.593-4.902-4.149-8.101-4.163-3.205-.015-6.242 1.516-8.14 4.094l-44.504 60.49c-2.259 3.07-2.593 7.091-.873 10.492 1.721 3.4 5.157 5.514 8.969 5.514h17.256v26.213c0 4.143 3.358 7.5 7.5 7.5s7.5-3.357 7.5-7.5v-31.162c0-5.542-4.509-10.051-10.05-10.051h-12.415l34.683-47.141 34.09 47.141h-11.722c-5.542 0-10.05 4.509-10.05 10.051v105.245c-8.547.182-16.783 1.634-24.531 4.185v-43.268c0-4.143-3.358-7.5-7.5-7.5s-7.5 3.357-7.5 7.5v49.891c-25.715 14.5-43.129 42.061-43.129 73.627 0 46.583 37.898 84.481 84.481 84.481 19.939 0 38.273-6.959 52.739-18.555h236.958c10.233 0 18.559-8.325 18.559-18.559v-17.22c0-4.146-1.383-7.965-3.69-11.058 2.306-3.093 3.69-6.912 3.69-11.058v-17.22c0-4.146-1.383-7.966-3.69-11.059 2.306-3.093 3.69-6.913 3.69-11.059v-17.219c0-4.146-1.383-7.966-3.69-11.059 2.306-3.093 3.69-6.913 3.69-11.059v-17.22c0-4.146-1.383-7.965-3.689-11.058 2.306-3.093 3.689-6.912 3.689-11.058v-17.22c0-4.146-1.383-7.966-3.69-11.059 2.306-3.093 3.69-6.913 3.69-11.059v-17.219c0-4.146-1.383-7.966-3.69-11.059 2.306-3.093 3.69-6.913 3.69-11.059zm-104.333-156.058 34.683-47.142 34.09 47.142h-11.722c-5.541 0-10.05 4.509-10.05 10.05v127.45h-24.531v-127.45c0-5.541-4.509-10.05-10.051-10.05zm-126.373 78.396 34.683-47.142 34.089 47.142h-11.721c-5.542 0-10.051 4.509-10.051 10.05v167.063h-24.531v-167.063c0-5.541-4.509-10.05-10.05-10.05zm-77.55 353.013c-38.312 0-69.481-31.169-69.481-69.481s31.169-69.481 69.481-69.481 69.481 31.169 69.481 69.481-31.169 69.481-69.481 69.481zm172.343-22.113c0 1.962-1.597 3.559-3.559 3.559h-101.433c5.521-7.283 9.875-15.489 12.818-24.336h88.615c1.962 0 3.559 1.596 3.559 3.558zm0-78.673c0 1.962-1.597 3.559-3.559 3.559h-28.897c-4.143 0-7.5 3.357-7.5 7.5s3.357 7.5 7.5 7.5h28.897c1.962 0 3.559 1.597 3.559 3.559v17.22c0 1.962-1.597 3.559-3.559 3.559h-85.118c.523-3.792.815-7.657.815-11.591 0-4.334-.345-8.586-.978-12.746h21.384c4.142 0 7.5-3.357 7.5-7.5s-3.358-7.5-7.5-7.5h-25.107c-3.096-8.874-7.62-17.083-13.317-24.336h102.321c1.962 0 3.559 1.597 3.559 3.559zm0-39.336c0 1.962-1.597 3.559-3.559 3.559h-117.219c-.118 0-.229-.024-.344-.035-.963-.737-1.942-1.452-2.937-2.148-.178-.424-.278-.888-.278-1.376v-17.22c0-1.962 1.596-3.558 3.559-3.558h117.219c1.962 0 3.559 1.596 3.559 3.558zm120.913 118.009c0 1.962-1.597 3.559-3.559 3.559h-102.705c.225-1.153.351-2.341.351-3.559v-17.22c0-1.219-.133-2.405-.36-3.558h102.714c1.962 0 3.559 1.596 3.559 3.558zm0-39.336c0 1.962-1.597 3.559-3.559 3.559h-102.715c.228-1.153.361-2.339.361-3.559v-17.22c0-1.219-.133-2.406-.361-3.559h102.715c1.962 0 3.559 1.597 3.559 3.559zm0-39.337c0 1.962-1.597 3.559-3.559 3.559h-102.715c.228-1.153.361-2.339.361-3.559v-17.219c0-1.219-.133-2.406-.361-3.559h102.715c1.962 0 3.559 1.597 3.559 3.559zm0-78.672c0 1.96-1.593 3.554-3.552 3.558-.002 0-.004 0-.006 0h-18.811c-4.143 0-7.5 3.357-7.5 7.5s3.357 7.5 7.5 7.5h18.791c.006 0 .013.001.019.001h.006c1.959.004 3.552 1.598 3.552 3.558v17.22c0 1.962-1.597 3.559-3.559 3.559h-102.714c.228-1.153.361-2.339.361-3.559v-17.22c0-1.218-.126-2.406-.351-3.559h48.895c4.143 0 7.5-3.357 7.5-7.5s-3.357-7.5-7.5-7.5h-63.408c-.002 0-.004 0-.006 0-1.959-.004-3.552-1.598-3.552-3.558v-17.22c0-1.962 1.597-3.559 3.559-3.559h117.217c1.962 0 3.559 1.597 3.559 3.559zm0-39.337c0 1.962-1.597 3.559-3.559 3.559h-117.218c-1.962 0-3.559-1.597-3.559-3.559v-17.219c0-1.962 1.597-3.559 3.559-3.559h117.218c1.962 0 3.559 1.597 3.559 3.559zm0-39.336c0 1.962-1.597 3.559-3.559 3.559h-117.218c-1.962 0-3.559-1.597-3.559-3.559v-17.22c0-1.962 1.597-3.559 3.559-3.559h117.218c1.962 0 3.559 1.597 3.559 3.559z"/><path d="m152.355 420.019h-16.485c-4.088 0-7.415-3.326-7.415-7.415 0-4.088 3.326-7.414 7.415-7.414h29.044c4.142 0 7.5-3.357 7.5-7.5s-3.358-7.5-7.5-7.5h-13.302v-7.807c0-4.143-3.358-7.5-7.5-7.5s-7.5 3.357-7.5 7.5v7.807h-.742c-12.359 0-22.415 10.055-22.415 22.414s10.055 22.415 22.415 22.415h16.484c4.088 0 7.415 3.326 7.415 7.414 0 4.089-3.326 7.415-7.415 7.415h-29.043c-4.142 0-7.5 3.357-7.5 7.5s3.358 7.5 7.5 7.5h13.301v7.807c0 4.143 3.358 7.5 7.5 7.5s7.5-3.357 7.5-7.5v-7.807h.742c12.359 0 22.415-10.056 22.415-22.415s-10.055-22.414-22.414-22.414z"/></g></g></svg>