<svg id="Capa_1" enable-background="new 0 0 512 512" height="512" viewBox="0 0 512 512" width="512" xmlns="http://www.w3.org/2000/svg"><g><g><path d="m186.078 125.619c15.692 0 28.459-12.767 28.459-28.459 0-5.019-1.311-9.736-3.601-13.834l31.429-30.398c4.252 2.531 9.213 3.99 14.51 3.99 6.439 0 12.383-2.152 17.157-5.772l84.373 65.009c-1.375 3.336-2.139 6.985-2.139 10.811 0 15.692 12.767 28.459 28.459 28.459s28.459-12.767 28.459-28.459c0-5.292-1.456-10.248-3.982-14.497l25.746-26.59c4.067 2.244 8.737 3.525 13.702 3.525 15.692 0 28.459-12.767 28.459-28.459s-12.767-28.459-28.459-28.459-28.459 12.767-28.459 28.459c0 5.292 1.456 10.248 3.983 14.497l-25.746 26.59c-4.068-2.244-8.738-3.526-13.703-3.526-6.439 0-12.383 2.153-17.157 5.772l-84.373-65.008c1.375-3.336 2.139-6.985 2.139-10.811 0-15.692-12.767-28.459-28.459-28.459s-28.459 12.767-28.459 28.459c0 4.959 1.278 9.625 3.518 13.689l-31.492 30.459c-4.22-2.478-9.127-3.906-14.364-3.906-15.692 0-28.459 12.767-28.459 28.459s12.767 28.459 28.459 28.459zm262.572-78.133c7.421 0 13.459 6.038 13.459 13.459s-6.038 13.459-13.459 13.459-13.459-6.038-13.459-13.459 6.038-13.459 13.459-13.459zm-63.925 66.021c7.421 0 13.459 6.038 13.459 13.459s-6.038 13.459-13.459 13.459-13.459-6.038-13.459-13.459 6.038-13.459 13.459-13.459zm-127.85-98.507c7.421 0 13.459 6.038 13.459 13.459s-6.038 13.459-13.459 13.459-13.459-6.038-13.459-13.459 6.038-13.459 13.459-13.459zm-70.797 68.701c7.421 0 13.459 6.038 13.459 13.459s-6.038 13.459-13.459 13.459-13.459-6.038-13.459-13.459 6.038-13.459 13.459-13.459z"/><path d="m490.568 355.067h-13.459v-61.067c0-4.142-3.358-7.5-7.5-7.5s-7.5 3.358-7.5 7.5v61.067h-26.918v-200.689h26.918v104.622c0 4.142 3.358 7.5 7.5 7.5s7.5-3.358 7.5-7.5v-108.756c0-5.992-4.875-10.866-10.866-10.866h-35.186c-5.992 0-10.866 4.875-10.866 10.866v204.823h-7.007v-158.713c0-5.992-4.875-10.866-10.866-10.866h-35.186c-5.992 0-10.866 4.875-10.866 10.866v158.713h-7.007v-199.583c0-5.992-4.875-10.866-10.866-10.866h-35.186c-5.992 0-10.866 4.875-10.866 10.866v103.229c-2.253-2.57-4.589-5.063-7.007-7.477v-69.236c0-4.142-3.358-7.5-7.5-7.5s-7.5 3.358-7.5 7.5v56.075c-8.337-6.403-17.355-11.96-26.918-16.557v-97.531h26.918v23.013c0 4.142 3.358 7.5 7.5 7.5s7.5-3.358 7.5-7.5v-27.146c0-5.992-4.875-10.866-10.866-10.866h-35.186c-5.992 0-10.866 4.875-10.866 10.866v95.41c-3.696-1.311-7.459-2.479-11.279-3.507-2.213-3.993-6.476-6.656-11.299-6.656h-17.838c-1.12-3.36-2.481-6.649-4.062-9.811l12.607-12.607c4.609-4.609 5.068-11.941 1.066-17.054-5.147-6.576-11.092-12.521-17.669-17.669-5.113-4.002-12.445-3.544-17.054 1.065l-12.607 12.607c-3.164-1.581-6.453-2.942-9.812-4.062v-17.837c0-6.519-4.859-12.027-11.303-12.812-8.255-1.005-16.737-1.005-24.994 0-6.443.785-11.302 6.293-11.302 12.812v17.837c-3.359 1.12-6.648 2.481-9.812 4.062l-12.607-12.607c-4.609-4.609-11.941-5.067-17.054-1.065-6.577 5.147-12.522 11.092-17.669 17.669-4.002 5.112-3.544 12.444 1.065 17.055l12.607 12.607c-1.581 3.163-2.942 6.452-4.062 9.811h-17.837c-6.52 0-12.028 4.859-12.812 11.302-.503 4.127-.758 8.332-.758 12.498 0 4.167.255 8.372.757 12.496.784 6.444 6.292 11.304 12.812 11.304h17.837c1.119 3.359 2.481 6.648 4.062 9.811l-12.607 12.607c-4.609 4.61-5.066 11.942-1.064 17.054.934 1.193 1.903 2.358 2.888 3.509-8.906 19.368-13.889 40.898-13.889 63.576-.001 84.221 68.519 152.741 152.741 152.741 33.646 0 65.563-10.735 92.302-31.045 3.298-2.506 3.941-7.21 1.436-10.509-2.506-3.298-7.211-3.941-10.509-1.436-24.107 18.311-52.887 27.99-83.229 27.99-75.951 0-137.742-61.791-137.742-137.742 0-18.467 3.659-36.093 10.281-52.201 1.112.95 2.237 1.885 3.39 2.786 4.206 3.292 9.91 3.56 14.368.988-6.571 14.82-10.244 31.199-10.244 48.427 0 66.14 53.808 119.948 119.948 119.948s119.948-53.809 119.948-119.948c0-52.246-33.589-96.771-80.298-113.182.788-1.413 1.326-2.989 1.531-4.679.503-4.13.758-8.334.758-12.497 0-.285-.011-.571-.013-.856 55.513 17.779 95.816 69.875 95.816 131.213 0 31.462-10.892 62.232-30.668 86.641-2.608 3.219-2.113 7.941 1.105 10.549 3.218 2.607 7.941 2.112 10.549-1.105 19.662-24.267 31.398-54.202 33.62-85.275h11.943 148.809c4.142 0 7.5-3.358 7.5-7.5s-3.359-7.5-7.501-7.5zm-429.402-58.217c-4.549-3.721-8.724-7.896-12.445-12.445l12.37-12.37c4.015-4.015 4.927-10.11 2.27-15.169-1.683-3.203-3.082-6.582-4.158-10.044-1.696-5.455-6.651-9.12-12.33-9.12h-17.502c-.292-2.918-.439-5.87-.439-8.8s.147-5.881.439-8.8h17.502c5.678 0 10.633-3.665 12.33-9.121 1.076-3.461 2.475-6.84 4.158-10.044 2.657-5.059 1.744-11.154-2.271-15.169l-12.37-12.37c3.721-4.55 7.896-8.724 12.445-12.445l12.37 12.37c4.014 4.014 10.108 4.927 15.169 2.27 3.204-1.683 6.583-3.082 10.045-4.158 5.455-1.697 9.12-6.651 9.12-12.33v-17.502c5.838-.582 11.763-.582 17.6 0v17.502c0 5.678 3.665 10.633 9.12 12.33 3.462 1.077 6.842 2.476 10.045 4.158 5.059 2.659 11.156 1.745 15.169-2.27l12.37-12.37c4.55 3.722 8.725 7.896 12.445 12.445l-12.371 12.371c-4.015 4.014-4.927 10.11-2.27 15.169 1.682 3.201 3.081 6.581 4.158 10.044 1.697 5.455 6.651 9.12 12.33 9.12h17.502c.292 2.921.439 5.873.439 8.8 0 2.928-.147 5.879-.439 8.8h-17.502c-5.679 0-10.633 3.665-12.33 9.12-1.077 3.464-2.476 6.843-4.158 10.045-2.657 5.059-1.745 11.155 2.27 15.169l12.371 12.371c-3.721 4.549-7.896 8.723-12.445 12.445l-12.37-12.37c-4.015-4.016-10.111-4.927-15.168-2.27-3.204 1.683-6.584 3.082-10.044 4.158-5.456 1.696-9.121 6.651-9.121 12.33v17.5c-5.838.582-11.763.582-17.6 0v-17.502c0-5.679-3.666-10.634-9.12-12.33-3.462-1.077-6.841-2.476-10.045-4.158-5.058-2.656-11.154-1.745-15.169 2.27zm162.136-31.979-.375.65c-2.071 3.587-.842 8.174 2.745 10.245 1.182.682 2.471 1.006 3.743 1.006 2.592 0 5.113-1.346 6.502-3.751l.364-.63c11.03 7.491 20.565 17.023 28.057 28.052l-.633.365c-3.587 2.071-4.816 6.658-2.745 10.245 1.389 2.406 3.91 3.751 6.502 3.751 1.272 0 2.562-.324 3.743-1.006l.654-.378c5.72 11.73 9.317 24.675 10.287 38.337h-20.146c-4.142 0-7.5 3.358-7.5 7.5s3.358 7.5 7.5 7.5h20.145c-.969 13.662-4.564 26.608-10.283 38.338l-.658-.38c-3.588-2.072-8.175-.843-10.245 2.745-2.071 3.587-.842 8.174 2.745 10.245l.638.369c-7.492 11.031-17.027 20.566-28.057 28.058l-.368-.638c-2.071-3.587-6.659-4.817-10.245-2.745-3.587 2.071-4.816 6.658-2.745 10.245l.38.658c-11.73 5.719-24.677 9.314-38.339 10.283v-19.935c0-4.142-3.358-7.5-7.5-7.5s-7.5 3.358-7.5 7.5v19.936c-13.662-.969-26.608-4.564-38.338-10.283l.38-.658c2.071-3.587.842-8.174-2.745-10.245-3.588-2.073-8.174-.842-10.245 2.745l-.368.638c-11.031-7.492-20.566-17.027-28.058-28.058l.638-.369c3.587-2.071 4.816-6.658 2.745-10.245-2.071-3.588-6.66-4.815-10.245-2.745l-.658.38c-5.719-11.73-9.313-24.677-10.283-38.338h20.209c4.142 0 7.5-3.358 7.5-7.5s-3.358-7.5-7.5-7.5h-20.191c1.369-19.268 7.954-37.112 18.361-52.126.565.204 1.13.41 1.7.6v17.837c0 6.519 4.859 12.027 11.303 12.812 4.127.502 8.332.757 12.497.757s8.369-.255 12.498-.757c6.443-.785 11.302-6.293 11.302-12.812v-17.837c3.358-1.12 6.647-2.481 9.812-4.062l12.606 12.607c4.61 4.61 11.942 5.069 17.055 1.066 6.578-5.148 12.523-11.093 17.67-17.67 4.001-5.113 3.543-12.444-1.066-17.054l-12.607-12.607c1.254-2.509 2.364-5.099 3.331-7.74 12.812 1.192 24.962 4.703 36.031 10.099zm110.957 90.196h-4.109c-.754-27.859-9.01-53.875-22.809-76.109v-119.34h26.918zm63.925 0h-26.918v-154.58h26.918z"/><path d="m171.019 355.43-31.185 52.533c-2.114 3.562-.941 8.164 2.621 10.278 1.201.713 2.52 1.052 3.821 1.052 2.561 0 5.055-1.312 6.457-3.672l27.397-46.153 31.605 18.298c3.583 2.074 8.173.853 10.249-2.733 2.075-3.584.852-8.173-2.733-10.249l-38.025-22.016c-3.558-2.06-8.11-.872-10.207 2.662z"/><path d="m116.669 279.103c27.681 0 50.202-22.521 50.202-50.202s-22.521-50.202-50.202-50.202-50.202 22.521-50.202 50.202 22.521 50.202 50.202 50.202zm0-85.404c19.41 0 35.202 15.792 35.202 35.202s-15.792 35.202-35.202 35.202-35.202-15.792-35.202-35.202 15.792-35.202 35.202-35.202z"/><path d="m116.669 251.227c12.31 0 22.325-10.015 22.325-22.326 0-12.31-10.015-22.325-22.325-22.325-12.311 0-22.326 10.015-22.326 22.325.001 12.31 10.016 22.326 22.326 22.326zm0-29.651c4.039 0 7.325 3.286 7.325 7.325 0 4.04-3.286 7.326-7.325 7.326-4.04 0-7.326-3.286-7.326-7.326.001-4.039 3.287-7.325 7.326-7.325z"/><path d="m361.739 387.308c-2.929-2.929-7.678-2.929-10.606 0-2.929 2.929-2.929 7.678 0 10.606l19.264 19.264-19.264 19.264c-2.929 2.929-2.929 7.678 0 10.606 1.464 1.464 3.384 2.197 5.303 2.197s3.839-.732 5.303-2.197l24.567-24.567c2.929-2.929 2.929-7.678 0-10.606z"/><path d="m413.943 387.308c-2.928-2.93-7.677-2.929-10.606 0s-2.929 7.678 0 10.606l19.263 19.264-19.263 19.264c-2.929 2.929-2.929 7.678 0 10.606 1.464 1.464 3.384 2.197 5.303 2.197s3.839-.732 5.303-2.197l24.566-24.567c2.929-2.929 2.929-7.678 0-10.606z"/><path d="m466.147 387.308c-2.929-2.929-7.678-2.929-10.606 0-2.929 2.929-2.929 7.678 0 10.606l19.264 19.264-19.264 19.264c-2.929 2.929-2.929 7.678 0 10.606 1.464 1.464 3.384 2.197 5.303 2.197s3.839-.732 5.303-2.197l24.567-24.567c2.929-2.929 2.929-7.678 0-10.606z"/></g></g></svg>