<svg id="Capa_1" enable-background="new 0 0 512 512" height="512" viewBox="0 0 512 512" width="512" xmlns="http://www.w3.org/2000/svg"><g><g><path d="m435.759 484.5v-413.746c0-11.046-8.954-20-20-20h-322.353c-11.046 0-20 8.954-20 20v413.746c0 11.046 8.954 20 20 20h322.353c11.046 0 20-8.954 20-20z" fill="#e28086"/><path d="m405.759 469.5v-383.746c0-2.761-2.239-5-5-5h-292.353c-2.761 0-5 2.239-5 5v383.746c0 2.761 2.239 5 5 5h292.353c2.761 0 5-2.239 5-5z" fill="#e7ecf6"/><path d="m418.594 50.754h-30c11.046 0 20 8.954 20 20v413.746c0 11.046-8.954 20-20 20h30c11.046 0 20-8.954 20-20v-413.746c0-11.046-8.954-20-20-20z" fill="#dd636e"/><path d="m403.594 80.754h-30c2.761 0 5 2.239 5 5v383.746c0 2.761-2.239 5-5 5h30c2.761 0 5-2.239 5-5v-383.746c0-2.761-2.239-5-5-5z" fill="#d8e2f1"/><path d="m276.818 7.5h-44.471c-11.79 0-21.347 9.558-21.347 21.347v39.653h87.165v-39.653c0-11.789-9.557-21.347-21.347-21.347z" fill="#365e7d"/><path d="m279.653 7.5h-25.512c11.79 0 21.347 9.558 21.347 21.347v39.653h25.512v-39.653c0-11.789-9.557-21.347-21.347-21.347z" fill="#2b4d66"/><path d="m351.273 106.505v-59.505c0-4.971-4.029-9-9-9h-175.38c-4.971 0-9 4.029-9 9v59.505c0 4.97 4.029 9 9 9h175.38c4.97 0 9-4.03 9-9z" fill="#407093"/><path d="m345.107 38h-25.512c4.971 0 9 4.029 9 9v59.505c0 4.97-4.029 9-9 9h25.512c4.971 0 9-4.03 9-9v-59.505c0-4.971-4.029-9-9-9z" fill="#365e7d"/><circle cx="254.583" cy="291.993" fill="#b3e59f" r="76.203"/><g><path d="m228.518 321.429-14.879-30.07c-1.838-3.713-.317-8.211 3.396-10.048 3.712-1.839 8.211-.317 10.048 3.396l10.337 20.89 46.187-44.446c2.983-2.87 7.732-2.78 10.604.204s2.781 7.732-.204 10.604l-53.566 51.549c-3.665 3.525-9.683 2.45-11.923-2.079z" fill="#78c2a4"/></g></g><g><path d="m153 157.328c-4.142 0-7.5 3.357-7.5 7.5s3.358 7.5 7.5 7.5h206c4.142 0 7.5-3.357 7.5-7.5s-3.358-7.5-7.5-7.5z"/><path d="m359 235.578c4.142 0 7.5-3.357 7.5-7.5s-3.358-7.5-7.5-7.5h-60.809c-12.709-7.789-27.642-12.288-43.608-12.288-16.628 0-32.126 4.894-45.166 13.288h-56.417c-4.142 0-7.5 3.357-7.5 7.5s3.358 7.5 7.5 7.5h38.926c-11.593 13.094-19.148 29.827-20.718 48.25h-18.208c-4.142 0-7.5 3.357-7.5 7.5s3.358 7.5 7.5 7.5h18.259c1.746 18.709 9.668 35.647 21.711 48.75h-39.97c-4.142 0-7.5 3.357-7.5 7.5s3.358 7.5 7.5 7.5h58.244c12.649 7.687 27.486 12.117 43.339 12.117 15.738 0 30.688-4.321 43.518-12.117h60.899c4.142 0 7.5-3.357 7.5-7.5s-3.358-7.5-7.5-7.5h-42.671c5.17-5.667 9.62-12.112 13.175-19.229 1.851-3.706.348-8.21-3.358-10.062-3.705-1.85-8.21-.347-10.061 3.358-11.723 23.47-35.29 38.049-61.503 38.049-37.882 0-68.702-30.819-68.702-68.702s30.82-68.703 68.702-68.703c37.883 0 68.703 30.82 68.703 68.703v.21c0 .024.003.047.003.071 0 .018-.003.036-.003.054 0 4.143 3.358 7.5 7.5 7.5h28.215c4.142 0 7.5-3.357 7.5-7.5s-3.358-7.5-7.5-7.5h-21.042c-1.61-18.891-9.503-36.015-21.599-49.25h42.641z"/><path d="m359 412.328h-206c-4.142 0-7.5 3.357-7.5 7.5s3.358 7.5 7.5 7.5h206c4.142 0 7.5-3.357 7.5-7.5s-3.358-7.5-7.5-7.5z"/><path d="m418.594 43.254h-57.432c-1.703-7.296-8.247-12.754-16.055-12.754h-36.607v-1.652c0-15.907-12.941-28.848-28.847-28.848h-47.306c-15.906 0-28.847 12.941-28.847 28.848v1.652h-36.607c-7.808 0-14.351 5.458-16.055 12.754h-57.432c-15.164 0-27.5 12.337-27.5 27.5v413.746c0 15.163 12.336 27.5 27.5 27.5h91.423c4.142 0 7.5-3.357 7.5-7.5s-3.358-7.5-7.5-7.5h-91.423c-6.893 0-12.5-5.607-12.5-12.5v-413.746c0-6.893 5.607-12.5 12.5-12.5h56.986v15h-41.986c-6.893 0-12.5 5.607-12.5 12.5v383.746c0 6.893 5.607 12.5 12.5 12.5h295.188c6.893 0 12.5-5.607 12.5-12.5v-383.746c0-6.893-5.607-12.5-12.5-12.5h-41.986v-15h56.986c6.893 0 12.5 5.607 12.5 12.5v413.746c0 6.893-5.607 12.5-12.5 12.5h-198.765c-4.142 0-7.5 3.357-7.5 7.5s3.358 7.5 7.5 7.5h198.765c15.164 0 27.5-12.337 27.5-27.5v-413.746c0-15.163-12.337-27.5-27.5-27.5zm-253.201 3.746c0-.827.673-1.5 1.5-1.5h44.107c4.142 0 7.5-3.357 7.5-7.5v-9.152c0-7.636 6.212-13.848 13.847-13.848h47.306c7.635 0 13.847 6.212 13.847 13.848v9.152c0 4.143 3.358 7.5 7.5 7.5h44.107c.827 0 1.5.673 1.5 1.5 0 47.697.075 57.448-.045 59.588-.054.963-.705 1.417-1.455 1.417h-178.214c-.827 0-1.5-.673-1.5-1.5 0-24.736 0-29.663 0-59.505zm235.701 420h-290.188v-378.746h39.486v18.251c0 9.101 7.405 16.5 16.5 16.5h178.215c9.046 0 16.5-7.377 16.5-16.5v-18.251h39.486v378.746z"/><path d="m283.604 261.149-46.186 44.447-10.337-20.891c-1.837-3.713-6.338-5.234-10.048-3.396-3.712 1.837-5.233 6.335-3.396 10.048l14.879 30.07c2.242 4.529 8.258 5.603 11.923 2.078l53.566-51.549c2.984-2.872 3.076-7.62.204-10.604s-7.62-3.074-10.605-.203z"/></g></g></svg>